G04*
G04 #@! TF.GenerationSoftware,Altium Limited,Altium Designer,24.0.1 (36)*
G04*
G04 Layer_Color=65535*
%FSLAX25Y25*%
%MOIN*%
G70*
G04*
G04 #@! TF.SameCoordinates,0DD93644-3009-4194-81CF-6AEB06FC6686*
G04*
G04*
G04 #@! TF.FilePolarity,Positive*
G04*
G01*
G75*
%ADD10C,0.00787*%
%ADD11C,0.00984*%
%ADD12C,0.01968*%
%ADD13C,0.00394*%
%ADD14C,0.00500*%
%ADD15C,0.00600*%
%ADD16C,0.00591*%
D10*
X561000Y392500D02*
G03*
X561000Y392500I-5000J0D01*
G01*
Y381000D02*
G03*
X561000Y381000I-5000J0D01*
G01*
X462252Y285000D02*
X493748D01*
Y305000D01*
X462252D02*
X493748D01*
X462252Y285000D02*
Y305000D01*
X572047Y394587D02*
Y396752D01*
X583465D01*
Y394587D02*
Y396752D01*
X572047Y394587D02*
X583465D01*
X571358Y388287D02*
Y393209D01*
X401016Y295697D02*
X422984D01*
Y285303D02*
Y295697D01*
X401016Y285303D02*
X422984D01*
X401016D02*
Y295697D01*
X463673Y359173D02*
X485327D01*
X463673D02*
Y380827D01*
X485327D01*
Y359173D02*
Y380827D01*
X516008Y344342D02*
X532543D01*
X525457Y324658D02*
X532543D01*
D11*
X407492Y283413D02*
G03*
X407492Y283413I-492J0D01*
G01*
X491628Y355433D02*
G03*
X491628Y355433I-492J0D01*
G01*
D12*
X482965Y362520D02*
G03*
X482965Y362520I-984J0D01*
G01*
D13*
X441339Y335433D02*
X448425D01*
Y349606D01*
X441339D02*
X448425D01*
X441339Y335433D02*
Y349606D01*
X441142Y368898D02*
X448622D01*
X441142Y351575D02*
Y368898D01*
Y351575D02*
X448622D01*
Y368898D01*
Y350590D02*
Y351575D01*
X441142Y350590D02*
X448622D01*
X441142D02*
Y351575D01*
X430512Y342323D02*
X437598D01*
Y356496D01*
X430512D02*
X437598D01*
X430512Y342323D02*
Y356496D01*
X430315Y375787D02*
X437795D01*
X430315Y358465D02*
Y375787D01*
Y358465D02*
X437795D01*
Y375787D01*
Y357480D02*
Y358465D01*
X430315Y357480D02*
X437795D01*
X430315D02*
Y358465D01*
X429528Y412598D02*
X436614D01*
X429528Y398425D02*
Y412598D01*
Y398425D02*
X436614D01*
Y412598D01*
X429331Y378150D02*
X436811D01*
Y395472D01*
X429331D02*
X436811D01*
X429331Y378150D02*
Y395472D01*
Y396457D01*
X436811D01*
Y395472D02*
Y396457D01*
X401413Y356457D02*
X415587D01*
X401413D02*
Y363543D01*
X415587D01*
Y356457D02*
Y363543D01*
X506457Y329913D02*
X513543D01*
Y344087D01*
X506457D02*
X513543D01*
X506457Y329913D02*
Y344087D01*
Y329587D02*
X513543D01*
X506457Y315413D02*
Y329587D01*
Y315413D02*
X513543D01*
Y329587D01*
X570669Y412008D02*
X584842D01*
Y404921D02*
Y412008D01*
X570669Y404921D02*
X584842D01*
X570669D02*
Y412008D01*
X404413Y304543D02*
X418587D01*
Y297457D02*
Y304543D01*
X404413Y297457D02*
X418587D01*
X404413D02*
Y304543D01*
Y313043D02*
X418587D01*
Y305957D02*
Y313043D01*
X404413Y305957D02*
X418587D01*
X404413D02*
Y313043D01*
X446260Y378740D02*
Y392913D01*
X453346D01*
Y378740D02*
Y392913D01*
X446260Y378740D02*
X453346D01*
X438386D02*
Y392913D01*
X445472D01*
Y378740D02*
Y392913D01*
X438386Y378740D02*
X445472D01*
X510433Y356102D02*
Y370276D01*
X503346Y356102D02*
X510433D01*
X503346D02*
Y370276D01*
X510433D01*
X455118Y391535D02*
Y405709D01*
X462205D01*
Y391535D02*
Y405709D01*
X455118Y391535D02*
X462205D01*
X462992D02*
Y405709D01*
X470079D01*
Y391535D02*
Y405709D01*
X462992Y391535D02*
X470079D01*
X482913Y341957D02*
X497087D01*
X482913D02*
Y349043D01*
X497087D01*
Y341957D02*
Y349043D01*
X534543Y308413D02*
Y322587D01*
X527457Y308413D02*
X534543D01*
X527457D02*
Y322587D01*
X534543D01*
X542543Y308413D02*
Y322587D01*
X535457Y308413D02*
X542543D01*
X535457D02*
Y322587D01*
X542543D01*
X409413Y332457D02*
Y339543D01*
Y332457D02*
X423587D01*
Y339543D01*
X409413D02*
X423587D01*
X400457Y346087D02*
X407543D01*
X400457Y331913D02*
Y346087D01*
Y331913D02*
X407543D01*
Y346087D01*
D14*
X574784Y426437D02*
X580728D01*
X562264Y435000D02*
Y448858D01*
X574784Y457421D02*
X580728D01*
X593248Y435000D02*
Y448858D01*
X574784Y278799D02*
X580728D01*
X562264Y287362D02*
Y301220D01*
X574784Y309784D02*
X580728D01*
X593248Y287362D02*
Y301220D01*
D15*
X409800Y344850D02*
Y352150D01*
X414570D02*
X417430D01*
X422200Y344850D02*
Y352150D01*
D16*
X396914Y459392D02*
X396258Y460048D01*
X394946D01*
X394290Y459392D01*
Y456768D01*
X394946Y456112D01*
X396258D01*
X396914Y456768D01*
X398226Y460048D02*
X400850D01*
X399538D01*
Y456112D01*
X402162D02*
X403474D01*
X402817D01*
Y460048D01*
X402162Y459392D01*
X405441D02*
X406097Y460048D01*
X407409D01*
X408065Y459392D01*
Y456768D01*
X407409Y456112D01*
X406097D01*
X405441Y456768D01*
Y459392D01*
X409377D02*
X410033Y460048D01*
X411345D01*
X412001Y459392D01*
Y456768D01*
X411345Y456112D01*
X410033D01*
X409377Y456768D01*
Y459392D01*
X413313Y458080D02*
X415937D01*
X417248Y460048D02*
X418561D01*
X417905D01*
Y456112D01*
X417248D01*
X418561D01*
X420528D02*
Y460048D01*
X423152Y456112D01*
Y460048D01*
X424464Y456112D02*
Y458736D01*
X425776Y460048D01*
X427088Y458736D01*
Y456112D01*
Y458080D01*
X424464D01*
X431024Y456112D02*
X428400D01*
X431024Y458736D01*
Y459392D01*
X430368Y460048D01*
X429056D01*
X428400Y459392D01*
X432336Y456112D02*
X433647D01*
X432992D01*
Y460048D01*
X432336Y459392D01*
X435615Y456768D02*
X436271Y456112D01*
X437583D01*
X438239Y456768D01*
Y459392D01*
X437583Y460048D01*
X436271D01*
X435615Y459392D01*
Y458736D01*
X436271Y458080D01*
X438239D01*
X439551D02*
X442175D01*
X446111Y459392D02*
X445455Y460048D01*
X444143D01*
X443487Y459392D01*
Y458736D01*
X444143Y458080D01*
X445455D01*
X446111Y457424D01*
Y456768D01*
X445455Y456112D01*
X444143D01*
X443487Y456768D01*
X447423Y460048D02*
X450046D01*
X448735D01*
Y456112D01*
X451358D02*
Y460048D01*
X452670Y458736D01*
X453982Y460048D01*
Y456112D01*
X455294Y459392D02*
X455950Y460048D01*
X457262D01*
X457918Y459392D01*
Y458736D01*
X457262Y458080D01*
X456606D01*
X457262D01*
X457918Y457424D01*
Y456768D01*
X457262Y456112D01*
X455950D01*
X455294Y456768D01*
X461854Y456112D02*
X459230D01*
X461854Y458736D01*
Y459392D01*
X461198Y460048D01*
X459886D01*
X459230Y459392D01*
X465789D02*
X465133Y460048D01*
X463822D01*
X463166Y459392D01*
Y456768D01*
X463822Y456112D01*
X465133D01*
X465789Y456768D01*
Y458080D01*
X464477D01*
X469069Y456112D02*
Y460048D01*
X467101Y458080D01*
X469725D01*
X394290Y453907D02*
Y449972D01*
X396258D01*
X396914Y450628D01*
Y453252D01*
X396258Y453907D01*
X394290D01*
X400194Y449972D02*
X398882D01*
X398226Y450628D01*
Y451940D01*
X398882Y452596D01*
X400194D01*
X400850Y451940D01*
Y451284D01*
X398226D01*
X402162Y449972D02*
X404129D01*
X404785Y450628D01*
X404129Y451284D01*
X402817D01*
X402162Y451940D01*
X402817Y452596D01*
X404785D01*
X406097Y449972D02*
X407409D01*
X406753D01*
Y452596D01*
X406097D01*
X410689Y448660D02*
X411345D01*
X412001Y449316D01*
Y452596D01*
X410033D01*
X409377Y451940D01*
Y450628D01*
X410033Y449972D01*
X412001D01*
X413313D02*
Y452596D01*
X415281D01*
X415937Y451940D01*
Y449972D01*
X419216D02*
X417905D01*
X417248Y450628D01*
Y451940D01*
X417905Y452596D01*
X419216D01*
X419872Y451940D01*
Y451284D01*
X417248D01*
X423808Y453907D02*
Y449972D01*
X421840D01*
X421184Y450628D01*
Y451940D01*
X421840Y452596D01*
X423808D01*
X429056Y453907D02*
Y449972D01*
X431024D01*
X431680Y450628D01*
Y451284D01*
Y451940D01*
X431024Y452596D01*
X429056D01*
X432992D02*
Y450628D01*
X433647Y449972D01*
X435615D01*
Y449316D01*
X434959Y448660D01*
X434303D01*
X435615Y449972D02*
Y452596D01*
X436927D02*
X437583D01*
Y451940D01*
X436927D01*
Y452596D01*
Y450628D02*
X437583D01*
Y449972D01*
X436927D01*
Y450628D01*
X446767Y453252D02*
X446111Y453907D01*
X444799D01*
X444143Y453252D01*
Y452596D01*
X444799Y451940D01*
X446111D01*
X446767Y451284D01*
Y450628D01*
X446111Y449972D01*
X444799D01*
X444143Y450628D01*
X448078Y453907D02*
Y453252D01*
X449390Y451940D01*
X450702Y453252D01*
Y453907D01*
X449390Y451940D02*
Y449972D01*
X394290Y445144D02*
X395602Y442520D01*
X396914Y445144D01*
X398226Y442520D02*
X399538D01*
X398882D01*
Y446455D01*
X398226Y445799D01*
X401506Y442520D02*
Y443176D01*
X402162D01*
Y442520D01*
X401506D01*
X404785Y445799D02*
X405441Y446455D01*
X406753D01*
X407409Y445799D01*
Y443176D01*
X406753Y442520D01*
X405441D01*
X404785Y443176D01*
Y445799D01*
X416593Y446455D02*
Y442520D01*
X429056Y446455D02*
X427744D01*
X428400D01*
Y443176D01*
X427744Y442520D01*
X427088D01*
X426432Y443176D01*
X430368Y445144D02*
Y443176D01*
X431024Y442520D01*
X432992D01*
Y445144D01*
X434303Y442520D02*
Y445144D01*
X436271D01*
X436927Y444487D01*
Y442520D01*
X440207D02*
X438895D01*
X438239Y443176D01*
Y444487D01*
X438895Y445144D01*
X440207D01*
X440863Y444487D01*
Y443832D01*
X438239D01*
X448735Y442520D02*
X446111D01*
X448735Y445144D01*
Y445799D01*
X448078Y446455D01*
X446767D01*
X446111Y445799D01*
X450046D02*
X450702Y446455D01*
X452014D01*
X452670Y445799D01*
Y443176D01*
X452014Y442520D01*
X450702D01*
X450046Y443176D01*
Y445799D01*
X456606Y442520D02*
X453982D01*
X456606Y445144D01*
Y445799D01*
X455950Y446455D01*
X454638D01*
X453982Y445799D01*
X460542Y446455D02*
X459230Y445799D01*
X457918Y444487D01*
Y443176D01*
X458574Y442520D01*
X459886D01*
X460542Y443176D01*
Y443832D01*
X459886Y444487D01*
X457918D01*
X546218Y462815D02*
Y458879D01*
Y456674D02*
Y452739D01*
Y450534D02*
Y446599D01*
Y444394D02*
Y440458D01*
Y438254D02*
Y434318D01*
Y432114D02*
Y428178D01*
Y425974D02*
Y422038D01*
Y419833D02*
Y415898D01*
Y413693D02*
Y409758D01*
Y407553D02*
Y403617D01*
Y401413D02*
Y397477D01*
Y395273D02*
Y391337D01*
Y389132D02*
Y385197D01*
Y382992D02*
Y379057D01*
Y376852D02*
Y372916D01*
Y370712D02*
Y366776D01*
Y364572D02*
Y360636D01*
Y358432D02*
Y354496D01*
Y352291D02*
Y348356D01*
Y346151D02*
Y342215D01*
Y340011D02*
Y336075D01*
Y333871D02*
Y329935D01*
Y327731D02*
Y323795D01*
Y321590D02*
Y317655D01*
Y315450D02*
Y311515D01*
Y309310D02*
Y305374D01*
Y303170D02*
Y299234D01*
Y297030D02*
Y293094D01*
Y290890D02*
Y286954D01*
Y284749D02*
Y280814D01*
Y278609D02*
Y274674D01*
X441550Y328709D02*
Y332708D01*
X443549D01*
X444215Y332042D01*
Y330709D01*
X443549Y330042D01*
X441550D01*
X442882D02*
X444215Y328709D01*
X445548Y332708D02*
X448214D01*
Y332042D01*
X445548Y329376D01*
Y328709D01*
X441550Y374047D02*
Y370048D01*
X443549D01*
X444215Y370714D01*
Y373380D01*
X443549Y374047D01*
X441550D01*
X445548Y373380D02*
X446215Y374047D01*
X447548D01*
X448214Y373380D01*
Y372714D01*
X447548Y372047D01*
X446881D01*
X447548D01*
X448214Y371381D01*
Y370714D01*
X447548Y370048D01*
X446215D01*
X445548Y370714D01*
X429165Y346077D02*
X425166D01*
Y348077D01*
X425832Y348743D01*
X427165D01*
X427832Y348077D01*
Y346077D01*
Y347410D02*
X429165Y348743D01*
X425166Y352742D02*
X425832Y351409D01*
X427165Y350076D01*
X428498D01*
X429165Y350742D01*
Y352075D01*
X428498Y352742D01*
X427832D01*
X427165Y352075D01*
Y350076D01*
X425166Y364778D02*
X429165D01*
Y366777D01*
X428498Y367444D01*
X425832D01*
X425166Y366777D01*
Y364778D01*
X429165Y371443D02*
Y368777D01*
X426499Y371443D01*
X425832D01*
X425166Y370776D01*
Y369443D01*
X425832Y368777D01*
X427196Y400211D02*
X423198D01*
Y402210D01*
X423864Y402877D01*
X425197D01*
X425863Y402210D01*
Y400211D01*
Y401544D02*
X427196Y402877D01*
X423198Y406876D02*
Y404210D01*
X425197D01*
X424530Y405543D01*
Y406209D01*
X425197Y406876D01*
X426530D01*
X427196Y406209D01*
Y404876D01*
X426530Y404210D01*
X423198Y390051D02*
X427196D01*
Y392050D01*
X426530Y392717D01*
X423864D01*
X423198Y392050D01*
Y390051D01*
X427196Y394049D02*
Y395382D01*
Y394716D01*
X423198D01*
X423864Y394049D01*
X416756Y279923D02*
X416090Y280589D01*
X414757D01*
X414090Y279923D01*
Y277257D01*
X414757Y276590D01*
X416090D01*
X416756Y277257D01*
Y278590D01*
X415423D01*
X418089Y276590D02*
Y280589D01*
X420755Y276590D01*
Y280589D01*
X422088D02*
Y276590D01*
X424087D01*
X424754Y277257D01*
Y279923D01*
X424087Y280589D01*
X422088D01*
X399091D02*
Y277923D01*
X400423Y276590D01*
X401756Y277923D01*
Y280589D01*
X405755Y279923D02*
X405089Y280589D01*
X403756D01*
X403089Y279923D01*
Y277257D01*
X403756Y276590D01*
X405089D01*
X405755Y277257D01*
X409754Y279923D02*
X409087Y280589D01*
X407754D01*
X407088Y279923D01*
Y277257D01*
X407754Y276590D01*
X409087D01*
X409754Y277257D01*
X486927Y308447D02*
X486261Y309113D01*
Y310446D01*
X486927Y311112D01*
X487593D01*
X488260Y310446D01*
Y309780D01*
Y310446D01*
X488926Y311112D01*
X489593D01*
X490259Y310446D01*
Y309113D01*
X489593Y308447D01*
X486261Y312445D02*
X488926D01*
X490259Y313778D01*
X488926Y315111D01*
X486261D01*
X486927Y316444D02*
X486261Y317110D01*
Y318443D01*
X486927Y319110D01*
X487593D01*
X488260Y318443D01*
Y317777D01*
Y318443D01*
X488926Y319110D01*
X489593D01*
X490259Y318443D01*
Y317110D01*
X489593Y316444D01*
X480259Y308447D02*
X476261D01*
X480259Y311112D01*
X476261D01*
X480259Y312445D02*
X476261D01*
Y314445D01*
X476927Y315111D01*
X478260D01*
X478926Y314445D01*
Y312445D01*
Y313778D02*
X480259Y315111D01*
X476927Y319110D02*
X476261Y318443D01*
Y317110D01*
X476927Y316444D01*
X477593D01*
X478260Y317110D01*
Y318443D01*
X478926Y319110D01*
X479593D01*
X480259Y318443D01*
Y317110D01*
X479593Y316444D01*
X476261Y320443D02*
Y323109D01*
Y321776D01*
X480259D01*
X466077Y311256D02*
X465411Y310590D01*
Y309257D01*
X466077Y308591D01*
X466744D01*
X467410Y309257D01*
Y310590D01*
X468077Y311256D01*
X468743D01*
X469410Y310590D01*
Y309257D01*
X468743Y308591D01*
X465411Y312589D02*
X469410D01*
X468077Y313922D01*
X469410Y315255D01*
X465411D01*
Y318587D02*
Y317254D01*
X466077Y316588D01*
X468743D01*
X469410Y317254D01*
Y318587D01*
X468743Y319254D01*
X466077D01*
X465411Y318587D01*
X487219Y274910D02*
X486552Y274243D01*
Y272910D01*
X487219Y272244D01*
X489885D01*
X490551Y272910D01*
Y274243D01*
X489885Y274910D01*
X488552D01*
Y273577D01*
X490551Y276243D02*
X486552D01*
X490551Y278909D01*
X486552D01*
Y280241D02*
X490551D01*
Y282241D01*
X489885Y282907D01*
X487219D01*
X486552Y282241D01*
Y280241D01*
X477376Y274910D02*
X476710Y274243D01*
Y272910D01*
X477376Y272244D01*
X480042D01*
X480709Y272910D01*
Y274243D01*
X480042Y274910D01*
X476710Y276243D02*
X480709D01*
Y278909D01*
X476710Y280241D02*
X480709D01*
X479376D01*
X476710Y282907D01*
X478709Y280908D01*
X480709Y282907D01*
X465883Y272244D02*
X469882D01*
Y274243D01*
X469215Y274910D01*
X466550D01*
X465883Y274243D01*
Y272244D01*
Y276243D02*
Y277576D01*
Y276909D01*
X469882D01*
Y276243D01*
Y277576D01*
X465883Y281574D02*
Y280241D01*
X466550Y279575D01*
X469215D01*
X469882Y280241D01*
Y281574D01*
X469215Y282241D01*
X466550D01*
X465883Y281574D01*
X552668Y402999D02*
X555334Y399001D01*
Y402999D02*
X552668Y399001D01*
X559332D02*
X556667D01*
X559332Y401666D01*
Y402333D01*
X558666Y402999D01*
X557333D01*
X556667Y402333D01*
X553334Y373499D02*
X556000Y369501D01*
Y373499D02*
X553334Y369501D01*
X557333D02*
X558666D01*
X557999D01*
Y373499D01*
X557333Y372833D01*
X486825Y336583D02*
Y340582D01*
X488825D01*
X489491Y339916D01*
Y338583D01*
X488825Y337916D01*
X486825D01*
X488158D02*
X489491Y336583D01*
X492823D02*
Y340582D01*
X490824Y338583D01*
X493490D01*
X504952Y333282D02*
X500953D01*
Y335281D01*
X501620Y335948D01*
X502953D01*
X503619Y335281D01*
Y333282D01*
Y334615D02*
X504952Y335948D01*
X501620Y337281D02*
X500953Y337947D01*
Y339280D01*
X501620Y339946D01*
X502286D01*
X502953Y339280D01*
Y338614D01*
Y339280D01*
X503619Y339946D01*
X504286D01*
X504952Y339280D01*
Y337947D01*
X504286Y337281D01*
X504952Y318518D02*
X500953D01*
Y320517D01*
X501620Y321184D01*
X502953D01*
X503619Y320517D01*
Y318518D01*
Y319851D02*
X504952Y321184D01*
Y325183D02*
Y322517D01*
X502286Y325183D01*
X501620D01*
X500953Y324516D01*
Y323183D01*
X501620Y322517D01*
X413673Y326741D02*
Y330739D01*
X415672D01*
X416339Y330073D01*
Y328740D01*
X415672Y328074D01*
X413673D01*
X415006D02*
X416339Y326741D01*
X417671D02*
X419004D01*
X418338D01*
Y330739D01*
X417671Y330073D01*
X525211Y351409D02*
Y348077D01*
X525878Y347410D01*
X527210D01*
X527877Y348077D01*
Y351409D01*
X529210Y350742D02*
X529876Y351409D01*
X531209D01*
X531876Y350742D01*
Y350076D01*
X531209Y349410D01*
X530543D01*
X531209D01*
X531876Y348743D01*
Y348077D01*
X531209Y347410D01*
X529876D01*
X529210Y348077D01*
X490762Y389795D02*
Y386462D01*
X491429Y385796D01*
X492762D01*
X493428Y386462D01*
Y389795D01*
X497427Y385796D02*
X494761D01*
X497427Y388462D01*
Y389128D01*
X496760Y389795D01*
X495427D01*
X494761Y389128D01*
X402528Y347728D02*
X405861D01*
X406527Y348394D01*
Y349727D01*
X405861Y350394D01*
X402528D01*
X406527Y351727D02*
Y353060D01*
Y352393D01*
X402528D01*
X403195Y351727D01*
X553890Y292932D02*
Y291599D01*
Y292266D01*
X557223D01*
X557889Y291599D01*
Y290933D01*
X557223Y290266D01*
X554557Y294265D02*
X553890Y294931D01*
Y296264D01*
X554557Y296931D01*
X555223D01*
X555890Y296264D01*
Y295598D01*
Y296264D01*
X556556Y296931D01*
X557223D01*
X557889Y296264D01*
Y294931D01*
X557223Y294265D01*
X554103Y442247D02*
Y440914D01*
Y441580D01*
X557435D01*
X558102Y440914D01*
Y440248D01*
X557435Y439581D01*
X558102Y446246D02*
Y443580D01*
X555436Y446246D01*
X554769D01*
X554103Y445579D01*
Y444246D01*
X554769Y443580D01*
X457329Y410069D02*
X456662Y409403D01*
Y408070D01*
X457329Y407403D01*
X459994D01*
X460661Y408070D01*
Y409403D01*
X459994Y410069D01*
X460661Y411402D02*
Y412735D01*
Y412068D01*
X456662D01*
X457329Y411402D01*
X460661Y416734D02*
X456662D01*
X458661Y414734D01*
Y417400D01*
X465203Y410069D02*
X464536Y409403D01*
Y408070D01*
X465203Y407403D01*
X467868D01*
X468535Y408070D01*
Y409403D01*
X467868Y410069D01*
X468535Y411402D02*
Y412735D01*
Y412068D01*
X464536D01*
X465203Y411402D01*
Y414734D02*
X464536Y415401D01*
Y416734D01*
X465203Y417400D01*
X465869D01*
X466535Y416734D01*
Y416067D01*
Y416734D01*
X467202Y417400D01*
X467868D01*
X468535Y416734D01*
Y415401D01*
X467868Y414734D01*
X512447Y360856D02*
X511780Y360190D01*
Y358857D01*
X512447Y358191D01*
X515112D01*
X515779Y358857D01*
Y360190D01*
X515112Y360856D01*
X515779Y362189D02*
Y363522D01*
Y362856D01*
X511780D01*
X512447Y362189D01*
Y365522D02*
X511780Y366188D01*
Y367521D01*
X512447Y368187D01*
X515112D01*
X515779Y367521D01*
Y366188D01*
X515112Y365522D01*
X512447D01*
X539334Y299833D02*
X538667Y300499D01*
X537334D01*
X536668Y299833D01*
Y297167D01*
X537334Y296501D01*
X538667D01*
X539334Y297167D01*
X540666D02*
X541333Y296501D01*
X542666D01*
X543332Y297167D01*
Y299833D01*
X542666Y300499D01*
X541333D01*
X540666Y299833D01*
Y299166D01*
X541333Y298500D01*
X543332D01*
X530334Y299833D02*
X529667Y300499D01*
X528334D01*
X527668Y299833D01*
Y297167D01*
X528334Y296501D01*
X529667D01*
X530334Y297167D01*
X531667Y299833D02*
X532333Y300499D01*
X533666D01*
X534332Y299833D01*
Y299166D01*
X533666Y298500D01*
X534332Y297834D01*
Y297167D01*
X533666Y296501D01*
X532333D01*
X531667Y297167D01*
Y297834D01*
X532333Y298500D01*
X531667Y299166D01*
Y299833D01*
X532333Y298500D02*
X533666D01*
X448470Y396971D02*
X447804Y396305D01*
Y394972D01*
X448470Y394305D01*
X451136D01*
X451802Y394972D01*
Y396305D01*
X451136Y396971D01*
X447804Y398304D02*
Y400970D01*
X448470D01*
X451136Y398304D01*
X451802D01*
X440596Y396971D02*
X439930Y396305D01*
Y394972D01*
X440596Y394305D01*
X443262D01*
X443928Y394972D01*
Y396305D01*
X443262Y396971D01*
X439930Y400970D02*
X440596Y399637D01*
X441929Y398304D01*
X443262D01*
X443928Y398971D01*
Y400304D01*
X443262Y400970D01*
X442596D01*
X441929Y400304D01*
Y398304D01*
X397987Y339249D02*
X398653Y339916D01*
Y341248D01*
X397987Y341915D01*
X395321D01*
X394654Y341248D01*
Y339916D01*
X395321Y339249D01*
X398653Y335250D02*
Y337916D01*
X396654D01*
X397320Y336583D01*
Y335917D01*
X396654Y335250D01*
X395321D01*
X394654Y335917D01*
Y337250D01*
X395321Y337916D01*
X407798Y368459D02*
X407132Y369125D01*
X405799D01*
X405132Y368459D01*
Y365793D01*
X405799Y365127D01*
X407132D01*
X407798Y365793D01*
X411130Y365127D02*
Y369125D01*
X409131Y367126D01*
X411797D01*
X587250Y407798D02*
X586583Y407132D01*
Y405799D01*
X587250Y405132D01*
X589916D01*
X590582Y405799D01*
Y407132D01*
X589916Y407798D01*
X587250Y409131D02*
X586583Y409797D01*
Y411130D01*
X587250Y411797D01*
X587916D01*
X588583Y411130D01*
Y410464D01*
Y411130D01*
X589249Y411797D01*
X589916D01*
X590582Y411130D01*
Y409797D01*
X589916Y409131D01*
X399258Y308389D02*
X398591Y307722D01*
Y306389D01*
X399258Y305723D01*
X401924D01*
X402590Y306389D01*
Y307722D01*
X401924Y308389D01*
X402590Y312387D02*
Y309722D01*
X399924Y312387D01*
X399258D01*
X398591Y311721D01*
Y310388D01*
X399258Y309722D01*
Y301181D02*
X398591Y300515D01*
Y299182D01*
X399258Y298515D01*
X401924D01*
X402590Y299182D01*
Y300515D01*
X401924Y301181D01*
X402590Y302514D02*
Y303847D01*
Y303181D01*
X398591D01*
X399258Y302514D01*
X586257Y393004D02*
X590255D01*
Y395003D01*
X589589Y395669D01*
X588922D01*
X588256Y395003D01*
Y393004D01*
Y395003D01*
X587590Y395669D01*
X586923D01*
X586257Y395003D01*
Y393004D01*
X590255Y397002D02*
Y398335D01*
Y397669D01*
X586257D01*
X586923Y397002D01*
M02*
