G04*
G04 #@! TF.GenerationSoftware,Altium Limited,Altium Designer,24.0.1 (36)*
G04*
G04 Layer_Color=2752767*
%FSLAX25Y25*%
%MOIN*%
G70*
G04*
G04 #@! TF.SameCoordinates,0DD93644-3009-4194-81CF-6AEB06FC6686*
G04*
G04*
G04 #@! TF.FilePolarity,Positive*
G04*
G01*
G75*
%ADD14C,0.00500*%
%ADD50C,0.00667*%
D14*
X556000Y390500D02*
X554000Y394500D01*
X558000D01*
X556000Y390500D01*
X466000Y288000D02*
Y292000D01*
X470000D01*
Y288000D01*
X466000D01*
X476000D02*
Y292000D01*
X480000D01*
Y288000D01*
X476000D01*
X486000D02*
Y292000D01*
X490000D01*
Y288000D01*
X486000D01*
X466000Y298000D02*
Y302000D01*
X470000D01*
Y298000D01*
X466000D01*
X476000D02*
Y302000D01*
X480000D01*
Y298000D01*
X476000D01*
X486000D02*
Y302000D01*
X490000D01*
Y298000D01*
X486000D01*
X556000Y379000D02*
X554000Y383000D01*
X558000D01*
X556000Y379000D01*
X405000Y288500D02*
Y292500D01*
X409000D01*
Y288500D01*
X405000D01*
X415000D02*
Y292500D01*
X419000D01*
Y288500D01*
X415000D01*
X497016Y357252D02*
X498016Y359252D01*
X497016Y361252D01*
X499016Y360252D01*
X501016Y361252D01*
X500016Y359252D01*
X501016Y357252D01*
X499016Y358252D01*
X497016Y357252D01*
X471425Y391701D02*
X472425Y393701D01*
X471425Y395701D01*
X473425Y394701D01*
X475425Y395701D01*
X474425Y393701D01*
X475425Y391701D01*
X473425Y392701D01*
X471425Y391701D01*
X498984Y412370D02*
X499984Y414370D01*
X498984Y416370D01*
X500984Y415370D01*
X502984Y416370D01*
X501984Y414370D01*
X502984Y412370D01*
X500984Y413370D01*
X498984Y412370D01*
X497016Y365244D02*
X498016Y367244D01*
X497016Y369244D01*
X499016Y368244D01*
X501016Y369244D01*
X500016Y367244D01*
X501016Y365244D01*
X499016Y366244D01*
X497016Y365244D01*
X546500Y340665D02*
X547500Y342665D01*
X546500Y344665D01*
X548500Y343665D01*
X550500Y344665D01*
X549500Y342665D01*
X550500Y340665D01*
X548500Y341665D01*
X546500Y340665D01*
Y334760D02*
X547500Y336760D01*
X546500Y338760D01*
X548500Y337760D01*
X550500Y338760D01*
X549500Y336760D01*
X550500Y334760D01*
X548500Y335760D01*
X546500Y334760D01*
X393967Y357640D02*
X394967Y359640D01*
X393967Y361640D01*
X395967Y360640D01*
X397967Y361640D01*
X396967Y359640D01*
X397967Y357640D01*
X395967Y358640D01*
X393967Y357640D01*
X504890Y351346D02*
X505890Y353346D01*
X504890Y355346D01*
X506890Y354346D01*
X508890Y355346D01*
X507890Y353346D01*
X508890Y351346D01*
X506890Y352346D01*
X504890Y351346D01*
X525559Y336583D02*
X526559Y338583D01*
X525559Y340583D01*
X527559Y339583D01*
X529559Y340583D01*
X528559Y338583D01*
X529559Y336583D01*
X527559Y337583D01*
X525559Y336583D01*
X464500Y359000D02*
X465500Y361000D01*
X464500Y363000D01*
X466500Y362000D01*
X468500Y363000D01*
X467500Y361000D01*
X468500Y359000D01*
X466500Y360000D01*
X464500Y359000D01*
X508000Y345000D02*
X509000Y347000D01*
X508000Y349000D01*
X510000Y348000D01*
X512000Y349000D01*
X511000Y347000D01*
X512000Y345000D01*
X510000Y346000D01*
X508000Y345000D01*
X528841Y302659D02*
X529841Y304659D01*
X528841Y306659D01*
X530841Y305659D01*
X532841Y306659D01*
X531841Y304659D01*
X532841Y302659D01*
X530841Y303659D01*
X528841Y302659D01*
X537500Y302500D02*
X538500Y304500D01*
X537500Y306500D01*
X539500Y305500D01*
X541500Y306500D01*
X540500Y304500D01*
X541500Y302500D01*
X539500Y303500D01*
X537500Y302500D01*
X411500Y365500D02*
X412500Y367500D01*
X411500Y369500D01*
X413500Y368500D01*
X415500Y369500D01*
X414500Y367500D01*
X415500Y365500D01*
X413500Y366500D01*
X411500Y365500D01*
X401841Y325159D02*
X402841Y327159D01*
X401841Y329159D01*
X403841Y328159D01*
X405841Y329159D01*
X404841Y327159D01*
X405841Y325159D01*
X403841Y326159D01*
X401841Y325159D01*
D50*
X569913Y428130D02*
G03*
X569913Y428130I-2000J0D01*
G01*
X589598D02*
G03*
X589598Y428130I-2000J0D01*
G01*
X569913Y455728D02*
G03*
X569913Y455728I-2000J0D01*
G01*
X589598D02*
G03*
X589598Y455728I-2000J0D01*
G01*
X569913Y280492D02*
G03*
X569913Y280492I-2000J0D01*
G01*
X589598D02*
G03*
X589598Y280492I-2000J0D01*
G01*
X569913Y308090D02*
G03*
X569913Y308090I-2000J0D01*
G01*
X589598D02*
G03*
X589598Y308090I-2000J0D01*
G01*
M02*
