M48
;Layer_Color=9474304
;FILE_FORMAT=4:4
METRIC,TZ
;TYPE=PLATED
T01F00S00C0.6000
T02F00S00C1.0000
T03F00S00C1.0200
T04F00S00C1.9000
%
T01
X1348335Y773835
X1370330Y773430
X1184910Y916940
X1050290Y933450
X1005755Y913485
X1025755Y830985
X1295400Y881380
X1287500Y897500
X1267500Y912500
Y932800
X1272500Y1052500
X1202500Y1000000
X1340000Y860000
X1393190Y855370
Y870370
T02
X1412240Y967740
Y996950
T03
X1214120Y736600
X1239520
Y762000
X1214120
X1188720
Y736600
X1059180Y737870
X1033780
T04
X1442500Y712450
X1492500
Y782550
X1442500
Y1087450
X1492500
Y1157550
X1442500
M30
