G04*
G04 #@! TF.GenerationSoftware,Altium Limited,Altium Designer,24.0.1 (36)*
G04*
G04 Layer_Physical_Order=2*
G04 Layer_Color=36540*
%FSLAX25Y25*%
%MOIN*%
G70*
G04*
G04 #@! TF.SameCoordinates,0DD93644-3009-4194-81CF-6AEB06FC6686*
G04*
G04*
G04 #@! TF.FilePolarity,Positive*
G04*
G01*
G75*
%ADD35R,0.06181X0.06181*%
%ADD36C,0.06181*%
%ADD40C,0.05906*%
%ADD41C,0.06102*%
%ADD42R,0.06102X0.06102*%
%ADD43C,0.11221*%
%ADD44C,0.03937*%
G36*
X499016Y417323D02*
X499016Y417323D01*
X499848Y417291D01*
X501490Y417009D01*
X503081Y416516D01*
X504595Y415820D01*
X506004Y414931D01*
X507285Y413867D01*
X508417Y412644D01*
X509379Y411284D01*
X510156Y409810D01*
X510733Y408248D01*
X511101Y406623D01*
X511255Y404964D01*
X511223Y404132D01*
Y357722D01*
X511223D01*
X511256Y356970D01*
X511470Y355481D01*
X511876Y354032D01*
X512468Y352648D01*
X513236Y351354D01*
X514165Y350171D01*
X515242Y349119D01*
X516446Y348217D01*
X517758Y347480D01*
X519155Y346920D01*
X520613Y346548D01*
X522107Y346369D01*
X522860Y346353D01*
X526678D01*
X526678Y346353D01*
Y346353D01*
X527992Y346353D01*
X530597Y346010D01*
X533135Y345330D01*
X535563Y344324D01*
X537838Y343011D01*
X539923Y341411D01*
X541781Y339553D01*
X543380Y337469D01*
X544694Y335193D01*
X545699Y332766D01*
X546380Y330228D01*
X546722Y327623D01*
Y326309D01*
X546722Y282473D01*
X546722Y282472D01*
X546651Y281452D01*
X546148Y279469D01*
X545299Y277607D01*
X544133Y275925D01*
X542687Y274479D01*
X541006Y273313D01*
X540888Y273259D01*
X401027D01*
X400591Y273259D01*
X400536Y273256D01*
Y273256D01*
X399867Y273204D01*
X397751Y273370D01*
X395688Y273865D01*
X393728Y274677D01*
X391919Y275786D01*
X390305Y277164D01*
X388927Y278778D01*
X387819Y280587D01*
X387007Y282547D01*
X386511Y284610D01*
X386345Y286726D01*
X386448Y288037D01*
X386448Y288037D01*
X386448Y288386D01*
X386431Y288514D01*
X386383Y288878D01*
X386448Y289370D01*
Y408709D01*
X386718Y409424D01*
X387490Y410893D01*
X388436Y412257D01*
X389542Y413495D01*
X390790Y414590D01*
X392162Y415523D01*
X393638Y416282D01*
X395196Y416855D01*
X396813Y417234D01*
X397638Y417323D01*
X499016Y417323D01*
X499016Y417323D01*
D02*
G37*
%LPC*%
G36*
X473892Y397244D02*
X472959D01*
X472057Y397003D01*
X471250Y396536D01*
X470590Y395876D01*
X470123Y395068D01*
X469882Y394167D01*
Y393234D01*
X470123Y392333D01*
X470590Y391525D01*
X471250Y390865D01*
X472057Y390399D01*
X472959Y390158D01*
X473892D01*
X474793Y390399D01*
X475601Y390865D01*
X476261Y391525D01*
X476727Y392333D01*
X476968Y393234D01*
Y394167D01*
X476727Y395068D01*
X476261Y395876D01*
X475601Y396536D01*
X474793Y397003D01*
X473892Y397244D01*
D02*
G37*
G36*
X413967Y371043D02*
X413033D01*
X412132Y370802D01*
X411324Y370335D01*
X410665Y369676D01*
X410198Y368868D01*
X409957Y367967D01*
Y367034D01*
X410198Y366132D01*
X410665Y365324D01*
X411324Y364665D01*
X412132Y364198D01*
X413033Y363957D01*
X413967D01*
X414868Y364198D01*
X415676Y364665D01*
X416335Y365324D01*
X416802Y366132D01*
X417043Y367034D01*
Y367967D01*
X416802Y368868D01*
X416335Y369676D01*
X415676Y370335D01*
X414868Y370802D01*
X413967Y371043D01*
D02*
G37*
G36*
X499482Y370787D02*
X498549D01*
X497648Y370546D01*
X496840Y370079D01*
X496180Y369420D01*
X495714Y368612D01*
X495472Y367711D01*
Y366778D01*
X495714Y365876D01*
X496180Y365069D01*
X496840Y364409D01*
X497648Y363942D01*
X498549Y363701D01*
X499482D01*
X500383Y363942D01*
X501191Y364409D01*
X501851Y365069D01*
X502318Y365876D01*
X502559Y366778D01*
Y367711D01*
X502318Y368612D01*
X501851Y369420D01*
X501191Y370079D01*
X500383Y370546D01*
X499482Y370787D01*
D02*
G37*
G36*
X466966Y364543D02*
X466034D01*
X465132Y364302D01*
X464324Y363835D01*
X463665Y363176D01*
X463198Y362368D01*
X462957Y361467D01*
Y360533D01*
X463198Y359632D01*
X463665Y358824D01*
X464324Y358165D01*
X465132Y357698D01*
X466034Y357457D01*
X466966D01*
X467868Y357698D01*
X468676Y358165D01*
X469335Y358824D01*
X469802Y359632D01*
X470043Y360533D01*
Y361467D01*
X469802Y362368D01*
X469335Y363176D01*
X468676Y363835D01*
X467868Y364302D01*
X466966Y364543D01*
D02*
G37*
G36*
X499482Y362795D02*
X498549D01*
X497648Y362554D01*
X496840Y362087D01*
X496180Y361428D01*
X495714Y360620D01*
X495472Y359718D01*
Y358786D01*
X495714Y357884D01*
X496180Y357076D01*
X496840Y356417D01*
X497648Y355950D01*
X498549Y355709D01*
X499482D01*
X500383Y355950D01*
X501191Y356417D01*
X501851Y357076D01*
X502318Y357884D01*
X502559Y358786D01*
Y359718D01*
X502318Y360620D01*
X501851Y361428D01*
X501191Y362087D01*
X500383Y362554D01*
X499482Y362795D01*
D02*
G37*
G36*
X510466Y350543D02*
X509534D01*
X508632Y350302D01*
X507824Y349835D01*
X507165Y349176D01*
X506698Y348368D01*
X506457Y347466D01*
Y346533D01*
X506698Y345632D01*
X507165Y344824D01*
X507824Y344165D01*
X508632Y343698D01*
X509534Y343457D01*
X510466D01*
X511368Y343698D01*
X512176Y344165D01*
X512835Y344824D01*
X513302Y345632D01*
X513543Y346533D01*
Y347466D01*
X513302Y348368D01*
X512835Y349176D01*
X512176Y349835D01*
X511368Y350302D01*
X510466Y350543D01*
D02*
G37*
G36*
X492626Y304626D02*
X483374D01*
Y295374D01*
X492626D01*
Y304626D01*
D02*
G37*
G36*
X478609D02*
X477391D01*
X476214Y304311D01*
X475160Y303702D01*
X474298Y302840D01*
X473689Y301786D01*
X473374Y300609D01*
Y299391D01*
X473689Y298214D01*
X474298Y297160D01*
X475160Y296298D01*
X476214Y295689D01*
X477391Y295374D01*
X478609D01*
X479786Y295689D01*
X480840Y296298D01*
X481702Y297160D01*
X482311Y298214D01*
X482626Y299391D01*
Y300609D01*
X482311Y301786D01*
X481702Y302840D01*
X480840Y303702D01*
X479786Y304311D01*
X478609Y304626D01*
D02*
G37*
G36*
X468609D02*
X467391D01*
X466214Y304311D01*
X465160Y303702D01*
X464298Y302840D01*
X463689Y301786D01*
X463374Y300609D01*
Y299391D01*
X463689Y298214D01*
X464298Y297160D01*
X465160Y296298D01*
X466214Y295689D01*
X467391Y295374D01*
X468609D01*
X469786Y295689D01*
X470840Y296298D01*
X471702Y297160D01*
X472311Y298214D01*
X472626Y299391D01*
Y300609D01*
X472311Y301786D01*
X471702Y302840D01*
X470840Y303702D01*
X469786Y304311D01*
X468609Y304626D01*
D02*
G37*
G36*
X411665Y295165D02*
X402335D01*
Y285835D01*
X411665D01*
Y295165D01*
D02*
G37*
G36*
X478609Y294626D02*
X477391D01*
X476214Y294311D01*
X475160Y293702D01*
X474298Y292840D01*
X473689Y291786D01*
X473374Y290609D01*
Y289391D01*
X473689Y288214D01*
X474298Y287160D01*
X475160Y286298D01*
X476214Y285689D01*
X477391Y285374D01*
X478609D01*
X479786Y285689D01*
X480840Y286298D01*
X481702Y287160D01*
X482311Y288214D01*
X482626Y289391D01*
Y290609D01*
X482311Y291786D01*
X481702Y292840D01*
X480840Y293702D01*
X479786Y294311D01*
X478609Y294626D01*
D02*
G37*
G36*
X468609D02*
X467391D01*
X466214Y294311D01*
X465160Y293702D01*
X464298Y292840D01*
X463689Y291786D01*
X463374Y290609D01*
Y289391D01*
X463689Y288214D01*
X464298Y287160D01*
X465160Y286298D01*
X466214Y285689D01*
X467391Y285374D01*
X468609D01*
X469786Y285689D01*
X470840Y286298D01*
X471702Y287160D01*
X472311Y288214D01*
X472626Y289391D01*
Y290609D01*
X472311Y291786D01*
X471702Y292840D01*
X470840Y293702D01*
X469786Y294311D01*
X468609Y294626D01*
D02*
G37*
%LPD*%
D35*
X407000Y290500D02*
D03*
D36*
X417000D02*
D03*
D40*
X556000Y392500D02*
D03*
Y381000D02*
D03*
D41*
X468000Y290000D02*
D03*
X478000D02*
D03*
X488000D02*
D03*
X468000Y300000D02*
D03*
X478000D02*
D03*
D42*
X488000D02*
D03*
D43*
X567913Y428130D02*
D03*
X587598D02*
D03*
X567913Y455728D02*
D03*
X587598D02*
D03*
X567913Y280492D02*
D03*
X587598D02*
D03*
X567913Y308090D02*
D03*
X587598D02*
D03*
D44*
X499016Y359252D02*
D03*
X473425Y393701D02*
D03*
X500984Y414370D02*
D03*
X499016Y367244D02*
D03*
X548500Y342665D02*
D03*
Y336760D02*
D03*
X395967Y359640D02*
D03*
X506890Y353346D02*
D03*
X527559Y338583D02*
D03*
X466500Y361000D02*
D03*
X510000Y347000D02*
D03*
X530841Y304659D02*
D03*
X539500Y304500D02*
D03*
X413500Y367500D02*
D03*
X403841Y327159D02*
D03*
M02*
