G04*
G04 #@! TF.GenerationSoftware,Altium Limited,Altium Designer,24.0.1 (36)*
G04*
G04 Layer_Color=8388736*
%FSLAX25Y25*%
%MOIN*%
G70*
G04*
G04 #@! TF.SameCoordinates,0DD93644-3009-4194-81CF-6AEB06FC6686*
G04*
G04*
G04 #@! TF.FilePolarity,Negative*
G04*
G01*
G75*
%ADD21R,0.06517X0.02070*%
G04:AMPARAMS|DCode=22|XSize=65.17mil|YSize=20.7mil|CornerRadius=10.35mil|HoleSize=0mil|Usage=FLASHONLY|Rotation=180.000|XOffset=0mil|YOffset=0mil|HoleType=Round|Shape=RoundedRectangle|*
%AMROUNDEDRECTD22*
21,1,0.06517,0.00000,0,0,180.0*
21,1,0.04447,0.02070,0,0,180.0*
1,1,0.02070,-0.02223,0.00000*
1,1,0.02070,0.02223,0.00000*
1,1,0.02070,0.02223,0.00000*
1,1,0.02070,-0.02223,0.00000*
%
%ADD22ROUNDEDRECTD22*%
G04:AMPARAMS|DCode=23|XSize=20.7mil|YSize=65.17mil|CornerRadius=10.35mil|HoleSize=0mil|Usage=FLASHONLY|Rotation=180.000|XOffset=0mil|YOffset=0mil|HoleType=Round|Shape=RoundedRectangle|*
%AMROUNDEDRECTD23*
21,1,0.02070,0.04447,0,0,180.0*
21,1,0.00000,0.06517,0,0,180.0*
1,1,0.02070,0.00000,0.02223*
1,1,0.02070,0.00000,0.02223*
1,1,0.02070,0.00000,-0.02223*
1,1,0.02070,0.00000,-0.02223*
%
%ADD23ROUNDEDRECTD23*%
%ADD25R,0.02000X0.03728*%
%ADD26R,0.06312X0.05131*%
%ADD27R,0.06312X0.06706*%
%ADD28R,0.05131X0.06312*%
%ADD29R,0.03359X0.05721*%
%ADD30O,0.09061X0.02762*%
%ADD31C,0.06706*%
%ADD32C,0.06902*%
%ADD33R,0.06902X0.06902*%
%ADD34C,0.12020*%
%ADD35R,0.06181X0.06181*%
%ADD36C,0.06181*%
D21*
X490742Y358976D02*
D03*
D22*
Y362126D02*
D03*
Y365276D02*
D03*
Y368425D02*
D03*
Y371575D02*
D03*
Y374724D02*
D03*
Y377874D02*
D03*
Y381024D02*
D03*
X458258D02*
D03*
Y377874D02*
D03*
Y374724D02*
D03*
Y371575D02*
D03*
Y368425D02*
D03*
Y365276D02*
D03*
Y362126D02*
D03*
Y358976D02*
D03*
D23*
X485524Y386242D02*
D03*
X482374D02*
D03*
X479224D02*
D03*
X476075D02*
D03*
X472925D02*
D03*
X469776D02*
D03*
X466626D02*
D03*
X463476D02*
D03*
Y353758D02*
D03*
X466626D02*
D03*
X469776D02*
D03*
X472925D02*
D03*
X476075D02*
D03*
X479224D02*
D03*
X482374D02*
D03*
X485524D02*
D03*
D25*
X412260Y353514D02*
D03*
X419740D02*
D03*
Y343486D02*
D03*
X416000D02*
D03*
X412260D02*
D03*
D26*
X444882Y346457D02*
D03*
Y338583D02*
D03*
X434055Y353346D02*
D03*
Y345472D02*
D03*
X433071Y401575D02*
D03*
Y409449D02*
D03*
X510000Y340937D02*
D03*
Y333063D02*
D03*
Y318563D02*
D03*
Y326437D02*
D03*
X449803Y381890D02*
D03*
Y389764D02*
D03*
X441929Y381890D02*
D03*
Y389764D02*
D03*
X506890Y367126D02*
D03*
Y359252D02*
D03*
X458661Y394685D02*
D03*
Y402559D02*
D03*
X466535Y394685D02*
D03*
Y402559D02*
D03*
X531000Y319437D02*
D03*
Y311563D02*
D03*
X539000Y319437D02*
D03*
Y311563D02*
D03*
X404000Y335063D02*
D03*
Y342937D02*
D03*
D27*
X444882Y364961D02*
D03*
Y355512D02*
D03*
X434055Y371850D02*
D03*
Y362402D02*
D03*
X433071Y382087D02*
D03*
Y391535D02*
D03*
D28*
X412437Y360000D02*
D03*
X404563D02*
D03*
X573819Y408465D02*
D03*
X581693D02*
D03*
X407563Y301000D02*
D03*
X415437D02*
D03*
X407563Y309500D02*
D03*
X415437D02*
D03*
X493937Y345500D02*
D03*
X486063D02*
D03*
X420437Y336000D02*
D03*
X412563D02*
D03*
D29*
X574016Y390748D02*
D03*
X577756D02*
D03*
X581496D02*
D03*
Y400591D02*
D03*
X577756D02*
D03*
X574016D02*
D03*
D30*
X519551Y342000D02*
D03*
Y337000D02*
D03*
Y332000D02*
D03*
Y327000D02*
D03*
X538449D02*
D03*
Y332000D02*
D03*
Y337000D02*
D03*
Y342000D02*
D03*
D31*
X556000Y392500D02*
D03*
Y381000D02*
D03*
D32*
X468000Y290000D02*
D03*
X478000D02*
D03*
X488000D02*
D03*
X468000Y300000D02*
D03*
X478000D02*
D03*
D33*
X488000D02*
D03*
D34*
X567913Y428130D02*
D03*
X587598D02*
D03*
X567913Y455728D02*
D03*
X587598D02*
D03*
X567913Y280492D02*
D03*
X587598D02*
D03*
X567913Y308090D02*
D03*
X587598D02*
D03*
D35*
X407000Y290500D02*
D03*
D36*
X417000D02*
D03*
M02*
