G04*
G04 #@! TF.GenerationSoftware,Altium Limited,Altium Designer,24.0.1 (36)*
G04*
G04 Layer_Color=32768*
%FSLAX25Y25*%
%MOIN*%
G70*
G04*
G04 #@! TF.SameCoordinates,0DD93644-3009-4194-81CF-6AEB06FC6686*
G04*
G04*
G04 #@! TF.FilePolarity,Positive*
G04*
G01*
G75*
%ADD13C,0.00394*%
%ADD15C,0.00600*%
%ADD48C,0.00197*%
G36*
X423200Y353150D02*
Y343850D01*
X421740D01*
Y340500D01*
X410260D01*
Y343850D01*
X408800D01*
Y353150D01*
X410260D01*
Y356500D01*
X421740D01*
Y353150D01*
X423200D01*
D02*
G37*
D13*
X554032Y392500D02*
X557969D01*
X556000Y390531D02*
Y394468D01*
Y379031D02*
Y382968D01*
X554032Y381000D02*
X557969D01*
X572047Y392520D02*
Y398819D01*
X583465D01*
Y392520D02*
Y398819D01*
X572047Y392520D02*
X583465D01*
X572047Y396260D02*
X575787Y392520D01*
X527032Y334500D02*
X530969D01*
X529000Y332531D02*
Y336469D01*
D15*
X423200Y343850D02*
Y353150D01*
X421740D02*
X423200D01*
X421740D02*
Y356500D01*
X410260D02*
X421740D01*
X410260Y353150D02*
Y356500D01*
X408800Y353150D02*
X410260D01*
X408800Y343850D02*
Y353150D01*
Y343850D02*
X410260D01*
Y340500D02*
Y343850D01*
Y340500D02*
X421740D01*
Y343850D01*
X423200D01*
D48*
X561394Y392500D02*
G03*
X561394Y392500I-5394J0D01*
G01*
Y381000D02*
G03*
X561394Y381000I-5394J0D01*
G01*
X461366Y284114D02*
X494634D01*
Y305886D01*
X461366D02*
X494634D01*
X461366Y284114D02*
Y305886D01*
X561279Y421535D02*
X594232D01*
X561279D02*
Y462323D01*
X594232D01*
Y421535D02*
Y462323D01*
X561279Y273898D02*
X594232D01*
X561279D02*
Y314685D01*
X594232D01*
Y273898D02*
Y314685D01*
X514236Y323673D02*
Y345327D01*
X543764Y323673D02*
Y345327D01*
X514236D02*
X543764D01*
X514236Y323673D02*
X543764D01*
M02*
