G04*
G04 #@! TF.GenerationSoftware,Altium Limited,Altium Designer,24.0.1 (36)*
G04*
G04 Layer_Color=128*
%FSLAX25Y25*%
%MOIN*%
G70*
G04*
G04 #@! TF.SameCoordinates,0DD93644-3009-4194-81CF-6AEB06FC6686*
G04*
G04*
G04 #@! TF.FilePolarity,Positive*
G04*
G01*
G75*
%ADD14C,0.00500*%
D14*
X554032Y392500D02*
X557969D01*
X556000Y390531D02*
Y394468D01*
X465992Y290000D02*
X470008D01*
X468000Y287992D02*
Y292008D01*
X475992Y290000D02*
X480008D01*
X478000Y287992D02*
Y292008D01*
X485992Y290000D02*
X490008D01*
X488000Y287992D02*
Y292008D01*
X465992Y300000D02*
X470008D01*
X468000Y297992D02*
Y302008D01*
X475992Y300000D02*
X480008D01*
X478000Y297992D02*
Y302008D01*
X485992Y300000D02*
X490008D01*
X488000Y297992D02*
Y302008D01*
X554032Y381000D02*
X557969D01*
X556000Y379031D02*
Y382968D01*
X564173Y428130D02*
X571654D01*
X567913Y424390D02*
Y431870D01*
X583858Y428130D02*
X591339D01*
X587598Y424390D02*
Y431870D01*
X564173Y455728D02*
X571654D01*
X567913Y451988D02*
Y459469D01*
X583858Y455728D02*
X591339D01*
X587598Y451988D02*
Y459469D01*
X404992Y290500D02*
X409008D01*
X407000Y288492D02*
Y292508D01*
X414992Y290500D02*
X419008D01*
X417000Y288492D02*
Y292508D01*
X564173Y280492D02*
X571654D01*
X567913Y276752D02*
Y284232D01*
X583858Y280492D02*
X591339D01*
X587598Y276752D02*
Y284232D01*
X564173Y308090D02*
X571654D01*
X567913Y304350D02*
Y311831D01*
X583858Y308090D02*
X591339D01*
X587598Y304350D02*
Y311831D01*
X497835Y359252D02*
X500197D01*
X499016Y358071D02*
Y360433D01*
X472244Y393701D02*
X474606D01*
X473425Y392520D02*
Y394882D01*
X499803Y414370D02*
X502165D01*
X500984Y413189D02*
Y415551D01*
X497835Y367244D02*
X500197D01*
X499016Y366063D02*
Y368425D01*
X547319Y342665D02*
X549681D01*
X548500Y341484D02*
Y343847D01*
X547319Y336760D02*
X549681D01*
X548500Y335579D02*
Y337941D01*
X394785Y359640D02*
X397148D01*
X395967Y358459D02*
Y360821D01*
X505709Y353346D02*
X508071D01*
X506890Y352165D02*
Y354528D01*
X526378Y338583D02*
X528740D01*
X527559Y337402D02*
Y339764D01*
X465319Y361000D02*
X467681D01*
X466500Y359819D02*
Y362181D01*
X508819Y347000D02*
X511181D01*
X510000Y345819D02*
Y348181D01*
X529660Y304659D02*
X532022D01*
X530841Y303478D02*
Y305840D01*
X538319Y304500D02*
X540681D01*
X539500Y303319D02*
Y305681D01*
X412319Y367500D02*
X414681D01*
X413500Y366319D02*
Y368681D01*
X402660Y327159D02*
X405022D01*
X403841Y325978D02*
Y328340D01*
M02*
