G04*
G04 #@! TF.GenerationSoftware,Altium Limited,Altium Designer,24.0.1 (36)*
G04*
G04 Layer_Color=16711935*
%FSLAX25Y25*%
%MOIN*%
G70*
G04*
G04 #@! TF.SameCoordinates,0DD93644-3009-4194-81CF-6AEB06FC6686*
G04*
G04*
G04 #@! TF.FilePolarity,Positive*
G04*
G01*
G75*
%ADD10C,0.00787*%
%ADD13C,0.00394*%
%ADD14C,0.00500*%
%ADD46C,0.00100*%
%ADD47C,0.00300*%
D10*
X401016Y295697D02*
X422984D01*
Y285303D02*
Y295697D01*
X401016Y285303D02*
X422984D01*
X401016D02*
Y295697D01*
X460720Y356221D02*
X488279D01*
X460720D02*
Y383780D01*
X488279D01*
Y356221D02*
Y383780D01*
D13*
X561000Y392500D02*
G03*
X561000Y392500I-5000J0D01*
G01*
Y381000D02*
G03*
X561000Y381000I-5000J0D01*
G01*
X442421Y362992D02*
X447342D01*
X431595Y369882D02*
X436516D01*
X430610Y384055D02*
X435532D01*
X462252Y285000D02*
X493748D01*
Y305000D01*
X462252D02*
X493748D01*
X462252Y285000D02*
Y305000D01*
D14*
X526815Y341796D02*
G03*
X526815Y337096I0J-2350D01*
G01*
X521315Y325351D02*
G03*
X521811Y324854I500J4D01*
G01*
X526815Y337096D02*
G03*
X526815Y341796I0J2350D01*
G01*
X536173Y324854D02*
G03*
X536669Y325351I-4J500D01*
G01*
X521811Y344146D02*
G03*
X521315Y343649I4J-500D01*
G01*
X536669D02*
G03*
X536173Y344146I-500J-4D01*
G01*
X562264Y426437D02*
X593248D01*
X562264D02*
Y457421D01*
X593248D01*
Y426437D02*
Y457421D01*
X562264Y278799D02*
X593248D01*
X562264D02*
Y309784D01*
X593248D01*
Y278799D02*
Y309784D01*
X536169Y324854D02*
X536173D01*
X521811D02*
X521815D01*
X527693D01*
X528284D01*
X521811Y344146D02*
X521815D01*
X528284Y324854D02*
X529701D01*
X530291D02*
X536169D01*
X521315Y325351D02*
Y325354D01*
X530291Y344146D02*
X536169D01*
X536669Y325351D02*
Y325354D01*
X528284Y344146D02*
X529701D01*
X521815D02*
X527693D01*
X536669Y325354D02*
Y343646D01*
X529701Y344146D02*
X530291D01*
X521315Y343646D02*
Y343649D01*
X536669Y343646D02*
Y343649D01*
X521315Y325354D02*
Y343646D01*
X527693Y344146D02*
X528284D01*
X529701Y324854D02*
X530291D01*
X536169Y344146D02*
X536173D01*
X517181Y326252D02*
Y327748D01*
Y326252D02*
X518806D01*
Y327748D02*
X519649D01*
Y326252D02*
X521145D01*
X519649Y327748D02*
X521145D01*
Y326252D02*
X521315D01*
X517181Y327748D02*
X518806D01*
Y326252D02*
X519649D01*
X521145Y327748D02*
X521315D01*
Y326252D02*
Y327748D01*
X519649Y326252D02*
Y327748D01*
X517181Y331252D02*
Y332748D01*
Y331252D02*
X518806D01*
Y332748D02*
X519649D01*
Y331252D02*
X521145D01*
X519649Y332748D02*
X521145D01*
Y331252D02*
X521315D01*
X517181Y332748D02*
X518806D01*
Y331252D02*
X519649D01*
X521145Y332748D02*
X521315D01*
Y331252D02*
Y332748D01*
X519649Y331252D02*
Y332748D01*
X517181Y336252D02*
Y337748D01*
Y336252D02*
X518806D01*
Y337748D02*
X519649D01*
Y336252D02*
X521145D01*
X519649Y337748D02*
X521145D01*
Y336252D02*
X521315D01*
X517181Y337748D02*
X518806D01*
Y336252D02*
X519649D01*
X521145Y337748D02*
X521315D01*
Y336252D02*
Y337748D01*
X519649Y336252D02*
Y337748D01*
X517181Y341252D02*
Y342748D01*
Y341252D02*
X518806D01*
Y342748D02*
X519649D01*
Y341252D02*
X521145D01*
X519649Y342748D02*
X521145D01*
Y341252D02*
X521315D01*
X517181Y342748D02*
X518806D01*
Y341252D02*
X519649D01*
X521145Y342748D02*
X521315D01*
Y341252D02*
Y342748D01*
X519649Y341252D02*
Y342748D01*
X540803Y326252D02*
Y327748D01*
X539178D02*
X540803D01*
X538336Y326252D02*
X539178D01*
X536840Y327748D02*
X538336D01*
X536840Y326252D02*
X538336D01*
X536669Y327748D02*
X536840D01*
X539178Y326252D02*
X540803D01*
X538336Y327748D02*
X539178D01*
X536669Y326252D02*
X536840D01*
X536669D02*
Y327748D01*
X538336Y326252D02*
Y327748D01*
X540803Y331252D02*
Y332748D01*
X539178D02*
X540803D01*
X538336Y331252D02*
X539178D01*
X536840Y332748D02*
X538336D01*
X536840Y331252D02*
X538336D01*
X536669Y332748D02*
X536840D01*
X539178Y331252D02*
X540803D01*
X538336Y332748D02*
X539178D01*
X536669Y331252D02*
X536840D01*
X536669D02*
Y332748D01*
X538336Y331252D02*
Y332748D01*
X540803Y336252D02*
Y337748D01*
X539178D02*
X540803D01*
X538336Y336252D02*
X539178D01*
X536840Y337748D02*
X538336D01*
X536840Y336252D02*
X538336D01*
X536669Y337748D02*
X536840D01*
X539178Y336252D02*
X540803D01*
X538336Y337748D02*
X539178D01*
X536669Y336252D02*
X536840D01*
X536669D02*
Y337748D01*
X538336Y336252D02*
Y337748D01*
X540803Y341252D02*
Y342748D01*
X539178D02*
X540803D01*
X538336Y341252D02*
X539178D01*
X536840Y342748D02*
X538336D01*
X536840Y341252D02*
X538336D01*
X536669Y342748D02*
X536840D01*
X539178Y341252D02*
X540803D01*
X538336Y342748D02*
X539178D01*
X536669Y341252D02*
X536840D01*
X536669D02*
Y342748D01*
X538336Y341252D02*
Y342748D01*
X529701Y344146D02*
X530291D01*
X527693D02*
X528284D01*
X527693Y324854D02*
X528284D01*
X529701D02*
X530291D01*
D46*
X410300Y347300D02*
G03*
X410300Y349700I0J1200D01*
G01*
Y345350D02*
X421700D01*
X410300D02*
Y351650D01*
X421700D01*
Y345350D02*
Y351650D01*
X411260D02*
Y354000D01*
X413260D01*
Y351650D02*
Y354000D01*
X411260Y351650D02*
X413260D01*
X418740D02*
Y354000D01*
X420740D01*
Y351650D02*
Y354000D01*
X418740Y351650D02*
X420740D01*
Y343000D02*
Y345350D01*
X418740Y343000D02*
X420740D01*
X418740D02*
Y345350D01*
X420740D01*
X417000Y343000D02*
Y345350D01*
X415000Y343000D02*
X417000D01*
X415000D02*
Y345350D01*
X417000D01*
X413260Y343000D02*
Y345350D01*
X411260Y343000D02*
X413260D01*
X411260D02*
Y345350D01*
X413260D01*
D47*
X410894Y345100D02*
X414227Y348432D01*
Y345100D02*
X410894Y348432D01*
X412561Y345100D02*
Y348432D01*
X414227Y346766D02*
X410894D01*
M02*
