G04*
G04 #@! TF.GenerationSoftware,Altium Limited,Altium Designer,24.0.1 (36)*
G04*
G04 Layer_Color=32896*
%FSLAX25Y25*%
%MOIN*%
G70*
G04*
G04 #@! TF.SameCoordinates,0DD93644-3009-4194-81CF-6AEB06FC6686*
G04*
G04*
G04 #@! TF.FilePolarity,Positive*
G04*
G01*
G75*
%ADD10C,0.00787*%
%ADD16C,0.00591*%
D10*
X568504Y322146D02*
Y347146D01*
X587008Y322146D02*
Y347146D01*
D16*
X390138Y454463D02*
X389482Y455119D01*
Y456431D01*
X390138Y457087D01*
X392762D01*
X393418Y456431D01*
Y455119D01*
X392762Y454463D01*
X389482Y453151D02*
X392762D01*
X393418Y452495D01*
Y451183D01*
X392762Y450527D01*
X389482D01*
X393418Y449215D02*
X389482D01*
Y447247D01*
X390138Y446591D01*
X391450D01*
X392106Y447247D01*
Y449215D01*
Y447903D02*
X393418Y446591D01*
Y445279D02*
X389482D01*
Y443312D01*
X390138Y442656D01*
X391450D01*
X392106Y443312D01*
Y445279D01*
Y443967D02*
X393418Y442656D01*
X389482Y438720D02*
Y441344D01*
X393418D01*
Y438720D01*
X391450Y441344D02*
Y440032D01*
X393418Y437408D02*
X389482D01*
X393418Y434784D01*
X389482D01*
Y433472D02*
Y430848D01*
Y432160D01*
X393418D01*
X389482Y425601D02*
Y422977D01*
Y424289D01*
X393418D01*
Y421665D02*
X389482D01*
Y419697D01*
X390138Y419041D01*
X391450D01*
X392106Y419697D01*
Y421665D01*
Y420353D02*
X393418Y419041D01*
Y417729D02*
X390794D01*
X389482Y416417D01*
X390794Y415105D01*
X393418D01*
X391450D01*
Y417729D01*
X390138Y411170D02*
X389482Y411826D01*
Y413137D01*
X390138Y413794D01*
X392762D01*
X393418Y413137D01*
Y411826D01*
X392762Y411170D01*
X389482Y407234D02*
Y409858D01*
X393418D01*
Y407234D01*
X391450Y409858D02*
Y408546D01*
X393418Y401986D02*
X389482D01*
Y400018D01*
X390138Y399362D01*
X391450D01*
X392106Y400018D01*
Y401986D01*
X393418Y398050D02*
X390794D01*
X389482Y396739D01*
X390794Y395427D01*
X393418D01*
X391450D01*
Y398050D01*
X393418Y394115D02*
X389482D01*
Y392147D01*
X390138Y391491D01*
X391450D01*
X392106Y392147D01*
Y394115D01*
Y392803D02*
X393418Y391491D01*
Y390179D02*
X390794D01*
X389482Y388867D01*
X390794Y387555D01*
X393418D01*
X391450D01*
Y390179D01*
X393418Y386243D02*
X389482D01*
X390794Y384931D01*
X389482Y383619D01*
X393418D01*
X389482Y379684D02*
Y382308D01*
X393418D01*
Y379684D01*
X391450Y382308D02*
Y380996D01*
X389482Y378372D02*
Y375748D01*
Y377060D01*
X393418D01*
X389482Y371812D02*
Y374436D01*
X393418D01*
Y371812D01*
X391450Y374436D02*
Y373124D01*
X393418Y370500D02*
X389482D01*
Y368532D01*
X390138Y367877D01*
X391450D01*
X392106Y368532D01*
Y370500D01*
Y369188D02*
X393418Y367877D01*
X395622Y457087D02*
Y454463D01*
Y453151D02*
Y450527D01*
Y449215D02*
Y446591D01*
Y445279D02*
Y442656D01*
Y441344D02*
Y438720D01*
Y437408D02*
Y434784D01*
Y433472D02*
Y430848D01*
Y429536D02*
Y426913D01*
Y425601D02*
Y422977D01*
Y421665D02*
Y419041D01*
Y417729D02*
Y415105D01*
Y413794D02*
Y411170D01*
Y409858D02*
Y407234D01*
Y405922D02*
Y403298D01*
Y401986D02*
Y399362D01*
Y398050D02*
Y395427D01*
Y394115D02*
Y391491D01*
Y390179D02*
Y387555D01*
Y386243D02*
Y383619D01*
Y382308D02*
Y379684D01*
Y378372D02*
Y375748D01*
Y374436D02*
Y371812D01*
Y370500D02*
Y367877D01*
X399204Y457087D02*
X403140D01*
Y454463D01*
Y451183D02*
Y452495D01*
X402484Y453151D01*
X401172D01*
X400516Y452495D01*
Y451183D01*
X401172Y450527D01*
X401828D01*
Y453151D01*
X403140Y449215D02*
X400516D01*
Y447247D01*
X401172Y446591D01*
X403140D01*
X404452Y443967D02*
Y443312D01*
X403796Y442656D01*
X400516D01*
Y444623D01*
X401172Y445279D01*
X402484D01*
X403140Y444623D01*
Y442656D01*
X399860Y440688D02*
X400516D01*
Y441344D01*
Y440032D01*
Y440688D01*
X402484D01*
X403140Y440032D01*
X399204Y438064D02*
X403140D01*
X401172D01*
X400516Y437408D01*
Y436096D01*
X401172Y435440D01*
X403140D01*
X400516Y434128D02*
Y433472D01*
X401172D01*
Y434128D01*
X400516D01*
X402484D02*
Y433472D01*
X403140D01*
Y434128D01*
X402484D01*
X403140Y424289D02*
Y426913D01*
X400516Y424289D01*
X399860D01*
X399204Y424945D01*
Y426257D01*
X399860Y426913D01*
X403140Y421009D02*
X399204D01*
X401172Y422977D01*
Y420353D01*
X403140Y419041D02*
X402484D01*
Y418385D01*
X403140D01*
Y419041D01*
X399860Y415761D02*
X399204Y415105D01*
Y413794D01*
X399860Y413137D01*
X402484D01*
X403140Y413794D01*
Y415105D01*
X402484Y415761D01*
X399860D01*
X403140Y407890D02*
X400516D01*
Y407234D01*
X401172Y406578D01*
X403140D01*
X401172D01*
X400516Y405922D01*
X401172Y405266D01*
X403140D01*
Y403954D02*
X400516D01*
Y403298D01*
X401172Y402642D01*
X403140D01*
X401172D01*
X400516Y401986D01*
X401172Y401330D01*
X403140D01*
X406656Y457087D02*
X410592D01*
X409280Y455775D01*
X410592Y454463D01*
X406656D01*
X410592Y453151D02*
Y451839D01*
Y452495D01*
X407968D01*
Y453151D01*
X406656Y447247D02*
X410592D01*
Y449215D01*
X409936Y449871D01*
X408624D01*
X407968Y449215D01*
Y447247D01*
X407312Y445279D02*
X407968D01*
Y445935D01*
Y444623D01*
Y445279D01*
X409936D01*
X410592Y444623D01*
X406656Y442656D02*
X410592D01*
X408624D01*
X407968Y442000D01*
Y440688D01*
X408624Y440032D01*
X410592D01*
X407968Y438720D02*
Y438064D01*
X408624D01*
Y438720D01*
X407968D01*
X409936D02*
Y438064D01*
X410592D01*
Y438720D01*
X409936D01*
X407312Y431504D02*
X406656Y430848D01*
Y429536D01*
X407312Y428881D01*
X407968D01*
X408624Y429536D01*
Y430192D01*
Y429536D01*
X409280Y428881D01*
X409936D01*
X410592Y429536D01*
Y430848D01*
X409936Y431504D01*
X410592Y427569D02*
X409936D01*
Y426913D01*
X410592D01*
Y427569D01*
X406656Y421665D02*
Y424289D01*
X408624D01*
X407968Y422977D01*
Y422321D01*
X408624Y421665D01*
X409936D01*
X410592Y422321D01*
Y423633D01*
X409936Y424289D01*
X410592Y416417D02*
X407968D01*
Y415761D01*
X408624Y415105D01*
X410592D01*
X408624D01*
X407968Y414449D01*
X408624Y413794D01*
X410592D01*
Y412482D02*
X407968D01*
Y411826D01*
X408624Y411170D01*
X410592D01*
X408624D01*
X407968Y410514D01*
X408624Y409858D01*
X410592D01*
X412796Y457087D02*
Y454463D01*
Y455775D01*
X416732D01*
X412796Y453151D02*
X416732D01*
X414764D01*
X414109Y452495D01*
Y451183D01*
X414764Y450527D01*
X416732D01*
Y449215D02*
Y447903D01*
Y448559D01*
X414109D01*
Y449215D01*
Y443312D02*
Y445279D01*
X414764Y445935D01*
X416076D01*
X416732Y445279D01*
Y443312D01*
Y442000D02*
X412796D01*
X415420D02*
X414109Y440032D01*
X415420Y442000D02*
X416732Y440032D01*
Y438064D02*
X414109D01*
Y436096D01*
X414764Y435440D01*
X416732D01*
Y432160D02*
Y433472D01*
X416076Y434128D01*
X414764D01*
X414109Y433472D01*
Y432160D01*
X414764Y431504D01*
X415420D01*
Y434128D01*
X416732Y430192D02*
Y428225D01*
X416076Y427569D01*
X415420Y428225D01*
Y429536D01*
X414764Y430192D01*
X414109Y429536D01*
Y427569D01*
X416732Y426257D02*
Y424289D01*
X416076Y423633D01*
X415420Y424289D01*
Y425601D01*
X414764Y426257D01*
X414109Y425601D01*
Y423633D01*
Y422321D02*
Y421665D01*
X414764D01*
Y422321D01*
X414109D01*
X416076D02*
Y421665D01*
X416732D01*
Y422321D01*
X416076D01*
X413452Y415105D02*
X412796Y414449D01*
Y413137D01*
X413452Y412482D01*
X416076D01*
X416732Y413137D01*
Y414449D01*
X416076Y415105D01*
X413452D01*
X416732Y411170D02*
X416076D01*
Y410514D01*
X416732D01*
Y411170D01*
X413452Y407890D02*
X412796Y407234D01*
Y405922D01*
X413452Y405266D01*
X416076D01*
X416732Y405922D01*
Y407234D01*
X416076Y407890D01*
X413452D01*
Y403954D02*
X412796Y403298D01*
Y401986D01*
X413452Y401330D01*
X414109D01*
X414764Y401986D01*
Y402642D01*
Y401986D01*
X415420Y401330D01*
X416076D01*
X416732Y401986D01*
Y403298D01*
X416076Y403954D01*
X412796Y397395D02*
Y400018D01*
X414764D01*
X414109Y398707D01*
Y398050D01*
X414764Y397395D01*
X416076D01*
X416732Y398050D01*
Y399362D01*
X416076Y400018D01*
X416732Y392147D02*
X414109D01*
Y391491D01*
X414764Y390835D01*
X416732D01*
X414764D01*
X414109Y390179D01*
X414764Y389523D01*
X416732D01*
Y388211D02*
X414109D01*
Y387555D01*
X414764Y386899D01*
X416732D01*
X414764D01*
X414109Y386243D01*
X414764Y385587D01*
X416732D01*
X565976Y337978D02*
X561977D01*
Y335979D01*
X562643Y335312D01*
X563976D01*
X564643Y335979D01*
Y337978D01*
Y336645D02*
X565976Y335312D01*
Y333979D02*
Y331980D01*
X565309Y331313D01*
X564643Y331980D01*
Y333313D01*
X563976Y333979D01*
X563310Y333313D01*
Y331313D01*
M02*
