G04*
G04 #@! TF.GenerationSoftware,Altium Limited,Altium Designer,24.0.1 (36)*
G04*
G04 Layer_Physical_Order=3*
G04 Layer_Color=16440176*
%FSLAX25Y25*%
%MOIN*%
G70*
G04*
G04 #@! TF.SameCoordinates,0DD93644-3009-4194-81CF-6AEB06FC6686*
G04*
G04*
G04 #@! TF.FilePolarity,Positive*
G04*
G01*
G75*
%ADD35R,0.06181X0.06181*%
%ADD36C,0.06181*%
%ADD40C,0.05906*%
%ADD41C,0.06102*%
%ADD42R,0.06102X0.06102*%
%ADD43C,0.11221*%
%ADD44C,0.03937*%
G36*
X400591Y406496D02*
X494095Y406496D01*
X494095Y406496D01*
X494095Y406496D01*
X495235Y406496D01*
X497498Y406198D01*
X499701Y405608D01*
X501810Y404735D01*
X503786Y403594D01*
X505596Y402205D01*
X507209Y400592D01*
X508598Y398781D01*
X509739Y396806D01*
X510612Y394697D01*
X511202Y392494D01*
X511500Y390231D01*
X511500Y389090D01*
X511500Y356610D01*
X511546Y355668D01*
X511914Y353820D01*
X512635Y352080D01*
X513681Y350513D01*
X515013Y349181D01*
X516580Y348135D01*
X518321Y347414D01*
X520168Y347046D01*
X521110Y347000D01*
X526031D01*
X526031Y347000D01*
X526031Y347000D01*
X527406Y347000D01*
X530131Y346642D01*
X532786Y345931D01*
X535325Y344879D01*
X537706Y343505D01*
X539887Y341831D01*
X541830Y339888D01*
X543504Y337707D01*
X544878Y335326D01*
X545930Y332787D01*
X546641Y330132D01*
X547000Y327407D01*
X547000Y326032D01*
X546999Y306535D01*
X546999Y306535D01*
X546999Y306037D01*
X546895Y305047D01*
X546689Y304073D01*
X546382Y303126D01*
X545978Y302216D01*
X545481Y301353D01*
X544897Y300546D01*
X544232Y299805D01*
X543863Y299471D01*
X543863Y299471D01*
X542988Y298680D01*
X541042Y297345D01*
X538936Y296282D01*
X536706Y295510D01*
X535550Y295276D01*
X484921Y295275D01*
X484758Y295309D01*
X484480Y295494D01*
X484293Y295769D01*
X484223Y296096D01*
X484252Y296260D01*
X484252Y299203D01*
X484252Y299203D01*
X484252Y299203D01*
X484241Y300189D01*
X484231Y302162D01*
Y304135D01*
X484241Y306108D01*
X484252Y307094D01*
X484266Y307436D01*
X484151Y308108D01*
X483855Y308723D01*
X483400Y309232D01*
X483124Y309434D01*
X432205Y346124D01*
X432205Y346124D01*
X431382Y346698D01*
X429671Y347745D01*
X427883Y348655D01*
X426029Y349423D01*
X424121Y350042D01*
X422170Y350510D01*
X420189Y350823D01*
X418189Y350980D01*
X417185Y351000D01*
X397031Y351000D01*
X396848Y351000D01*
X396480Y351009D01*
X396113Y351028D01*
X395747Y351056D01*
X395564Y351074D01*
X394609Y351134D01*
X392751Y351595D01*
X391006Y352382D01*
X389432Y353470D01*
X388078Y354824D01*
X386990Y356399D01*
X386448Y357599D01*
Y397793D01*
X386837Y398796D01*
X387688Y400350D01*
X388736Y401780D01*
X389962Y403060D01*
X391344Y404169D01*
X392860Y405087D01*
X394483Y405799D01*
X396185Y406293D01*
X397938Y406560D01*
X399710Y406595D01*
X400591Y406496D01*
D02*
G37*
%LPC*%
G36*
X499482Y370787D02*
X498549D01*
X497648Y370546D01*
X496840Y370079D01*
X496180Y369420D01*
X495714Y368612D01*
X495472Y367711D01*
Y366778D01*
X495714Y365876D01*
X496180Y365069D01*
X496840Y364409D01*
X497648Y363942D01*
X498549Y363701D01*
X499482D01*
X500383Y363942D01*
X501191Y364409D01*
X501851Y365069D01*
X502318Y365876D01*
X502559Y366778D01*
Y367711D01*
X502318Y368612D01*
X501851Y369420D01*
X501191Y370079D01*
X500383Y370546D01*
X499482Y370787D01*
D02*
G37*
G36*
X466966Y364543D02*
X466034D01*
X465132Y364302D01*
X464324Y363835D01*
X463665Y363176D01*
X463198Y362368D01*
X462957Y361467D01*
Y360533D01*
X463198Y359632D01*
X463665Y358824D01*
X464324Y358165D01*
X465132Y357698D01*
X466034Y357457D01*
X466966D01*
X467868Y357698D01*
X468676Y358165D01*
X469335Y358824D01*
X469802Y359632D01*
X470043Y360533D01*
Y361467D01*
X469802Y362368D01*
X469335Y363176D01*
X468676Y363835D01*
X467868Y364302D01*
X466966Y364543D01*
D02*
G37*
G36*
X396433Y363183D02*
X395500D01*
X394599Y362942D01*
X393791Y362475D01*
X393131Y361815D01*
X392665Y361007D01*
X392423Y360106D01*
Y359173D01*
X392665Y358272D01*
X393131Y357464D01*
X393791Y356804D01*
X394599Y356338D01*
X395500Y356096D01*
X396433D01*
X397334Y356338D01*
X398142Y356804D01*
X398802Y357464D01*
X399269Y358272D01*
X399510Y359173D01*
Y360106D01*
X399269Y361007D01*
X398802Y361815D01*
X398142Y362475D01*
X397334Y362942D01*
X396433Y363183D01*
D02*
G37*
G36*
X507356Y356890D02*
X506423D01*
X505522Y356648D01*
X504714Y356182D01*
X504054Y355522D01*
X503588Y354714D01*
X503346Y353813D01*
Y352880D01*
X503588Y351979D01*
X504054Y351171D01*
X504714Y350511D01*
X505522Y350045D01*
X506423Y349803D01*
X507356D01*
X508257Y350045D01*
X509065Y350511D01*
X509725Y351171D01*
X510192Y351979D01*
X510433Y352880D01*
Y353813D01*
X510192Y354714D01*
X509725Y355522D01*
X509065Y356182D01*
X508257Y356648D01*
X507356Y356890D01*
D02*
G37*
G36*
X528025Y342126D02*
X527093D01*
X526191Y341884D01*
X525383Y341418D01*
X524724Y340758D01*
X524257Y339950D01*
X524016Y339049D01*
Y338116D01*
X524257Y337215D01*
X524724Y336407D01*
X525383Y335747D01*
X526191Y335281D01*
X527093Y335039D01*
X528025D01*
X528927Y335281D01*
X529735Y335747D01*
X530394Y336407D01*
X530861Y337215D01*
X531102Y338116D01*
Y339049D01*
X530861Y339950D01*
X530394Y340758D01*
X529735Y341418D01*
X528927Y341884D01*
X528025Y342126D01*
D02*
G37*
G36*
X531307Y308203D02*
X530374D01*
X529473Y307961D01*
X528665Y307495D01*
X528005Y306835D01*
X527539Y306027D01*
X527297Y305126D01*
Y304193D01*
X527539Y303292D01*
X528005Y302484D01*
X528665Y301824D01*
X529473Y301358D01*
X530374Y301116D01*
X531307D01*
X532208Y301358D01*
X533016Y301824D01*
X533676Y302484D01*
X534142Y303292D01*
X534384Y304193D01*
Y305126D01*
X534142Y306027D01*
X533676Y306835D01*
X533016Y307495D01*
X532208Y307961D01*
X531307Y308203D01*
D02*
G37*
G36*
X539966Y308043D02*
X539034D01*
X538132Y307802D01*
X537324Y307335D01*
X536665Y306676D01*
X536198Y305868D01*
X535957Y304966D01*
Y304033D01*
X536198Y303132D01*
X536665Y302324D01*
X537324Y301665D01*
X538132Y301198D01*
X539034Y300957D01*
X539966D01*
X540868Y301198D01*
X541676Y301665D01*
X542335Y302324D01*
X542802Y303132D01*
X543043Y304033D01*
Y304966D01*
X542802Y305868D01*
X542335Y306676D01*
X541676Y307335D01*
X540868Y307802D01*
X539966Y308043D01*
D02*
G37*
%LPD*%
D35*
X407000Y290500D02*
D03*
D36*
X417000D02*
D03*
D40*
X556000Y392500D02*
D03*
Y381000D02*
D03*
D41*
X468000Y290000D02*
D03*
X478000D02*
D03*
X488000D02*
D03*
X468000Y300000D02*
D03*
X478000D02*
D03*
D42*
X488000D02*
D03*
D43*
X567913Y428130D02*
D03*
X587598D02*
D03*
X567913Y455728D02*
D03*
X587598D02*
D03*
X567913Y280492D02*
D03*
X587598D02*
D03*
X567913Y308090D02*
D03*
X587598D02*
D03*
D44*
X499016Y359252D02*
D03*
X473425Y393701D02*
D03*
X500984Y414370D02*
D03*
X499016Y367244D02*
D03*
X548500Y342665D02*
D03*
Y336760D02*
D03*
X395967Y359640D02*
D03*
X506890Y353346D02*
D03*
X527559Y338583D02*
D03*
X466500Y361000D02*
D03*
X510000Y347000D02*
D03*
X530841Y304659D02*
D03*
X539500Y304500D02*
D03*
X413500Y367500D02*
D03*
X403841Y327159D02*
D03*
M02*
