G04*
G04 #@! TF.GenerationSoftware,Altium Limited,Altium Designer,24.0.1 (36)*
G04*
G04 Layer_Color=16711935*
%FSLAX25Y25*%
%MOIN*%
G70*
G04*
G04 #@! TF.SameCoordinates,ECC27F64-EE2B-4F6F-9EE1-9880C6F0E752*
G04*
G04*
G04 #@! TF.FilePolarity,Positive*
G04*
G01*
G75*
%ADD13C,0.00394*%
%ADD15C,0.00300*%
%ADD42C,0.00100*%
D13*
X18600Y145900D02*
G03*
X18600Y145900I-5000J0D01*
G01*
X212000Y13000D02*
G03*
X212000Y13000I-5000J0D01*
G01*
X191500D02*
G03*
X191500Y13000I-5000J0D01*
G01*
X37100Y145900D02*
G03*
X37100Y145900I-5000J0D01*
G01*
X46039Y62744D02*
X50961D01*
X138402Y65736D02*
X163598D01*
X138402D02*
Y95264D01*
X163598D01*
Y65736D02*
Y95264D01*
D15*
X93600Y98106D02*
X96932Y94773D01*
X93600D02*
X96932Y98106D01*
X93600Y96439D02*
X96932D01*
X95266Y94773D02*
Y98106D01*
X83250Y95498D02*
Y91333D01*
X84083Y90500D01*
X85749D01*
X86582Y91333D01*
Y95498D01*
X88248Y90500D02*
X89915D01*
X89081D01*
Y95498D01*
X88248Y94665D01*
D42*
X95800Y98700D02*
G03*
X98200Y98700I1200J0D01*
G01*
X93850Y87300D02*
Y98700D01*
X100150D01*
Y87300D02*
Y98700D01*
X93850Y87300D02*
X100150D01*
Y97740D02*
X102500D01*
Y95740D02*
Y97740D01*
X100150Y95740D02*
X102500D01*
X100150D02*
Y97740D01*
Y90260D02*
X102500D01*
Y88260D02*
Y90260D01*
X100150Y88260D02*
X102500D01*
X100150D02*
Y90260D01*
X91500Y88260D02*
X93850D01*
X91500D02*
Y90260D01*
X93850D01*
Y88260D02*
Y90260D01*
X91500Y92000D02*
X93850D01*
X91500D02*
Y94000D01*
X93850D01*
Y92000D02*
Y94000D01*
X91500Y95740D02*
X93850D01*
X91500D02*
Y97740D01*
X93850D01*
Y95740D02*
Y97740D01*
M02*
