G04*
G04 #@! TF.GenerationSoftware,Altium Limited,Altium Designer,24.0.1 (36)*
G04*
G04 Layer_Color=8421504*
%FSLAX25Y25*%
%MOIN*%
G70*
G04*
G04 #@! TF.SameCoordinates,ECC27F64-EE2B-4F6F-9EE1-9880C6F0E752*
G04*
G04*
G04 #@! TF.FilePolarity,Positive*
G04*
G01*
G75*
%ADD16R,0.07087X0.07087*%
%ADD17R,0.06299X0.07087*%
%ADD18R,0.06299X0.07087*%
%ADD19R,0.06299X0.07087*%
%ADD20R,0.06299X0.07087*%
%ADD21R,0.04331X0.05512*%
%ADD22R,0.05512X0.04331*%
%ADD23R,0.05512X0.05906*%
%ADD24R,0.03728X0.02000*%
%ADD25R,0.02559X0.06890*%
D16*
X139189Y80500D02*
D03*
X162811D02*
D03*
D17*
X154937Y76169D02*
D03*
D18*
Y84831D02*
D03*
D19*
X147063D02*
D03*
D20*
Y76169D02*
D03*
D21*
X170965Y52444D02*
D03*
X163091D02*
D03*
X170965Y43000D02*
D03*
X163091D02*
D03*
D22*
X128500Y78437D02*
D03*
Y70563D02*
D03*
X48500Y89563D02*
D03*
Y97437D02*
D03*
X61500Y89563D02*
D03*
Y97437D02*
D03*
X62000Y60063D02*
D03*
Y67937D02*
D03*
X74000Y97437D02*
D03*
Y89563D02*
D03*
X116500D02*
D03*
Y97437D02*
D03*
D23*
X48500Y60776D02*
D03*
Y70224D02*
D03*
D24*
X102014Y96740D02*
D03*
Y89260D02*
D03*
X91986D02*
D03*
Y93000D02*
D03*
Y96740D02*
D03*
D25*
X141157Y61602D02*
D03*
X145095D02*
D03*
X149031D02*
D03*
X152969D02*
D03*
X156905D02*
D03*
X160843D02*
D03*
Y99398D02*
D03*
X156905D02*
D03*
X152969D02*
D03*
X149031D02*
D03*
X145095D02*
D03*
X141157D02*
D03*
M02*
