M48
;Layer_Color=9474304
;FILE_FORMAT=2:5
INCH,LZ
;TYPE=PLATED
T01F00S00C0.03543
T02F00S00C0.03937
%
T01
X0079Y00185
X0089
X0116
X0126
X0153
X0163
X0196Y00755
Y00855
X02005Y014
X01905
X0167375
X0157375
X013425
X012425
X0101125
X0091125
X0068
X0058
X0021Y0098
Y0088
T02
X01865Y0013
X0207
X00321Y01459
X00136
M30
