G04*
G04 #@! TF.GenerationSoftware,Altium Limited,Altium Designer,24.0.1 (36)*
G04*
G04 Layer_Color=255*
%FSLAX25Y25*%
%MOIN*%
G70*
G04*
G04 #@! TF.SameCoordinates,ECC27F64-EE2B-4F6F-9EE1-9880C6F0E752*
G04*
G04*
G04 #@! TF.FilePolarity,Positive*
G04*
G01*
G75*
%ADD21R,0.04331X0.05512*%
%ADD22R,0.05512X0.04331*%
%ADD23R,0.05512X0.05906*%
%ADD24R,0.03728X0.02000*%
%ADD25R,0.02559X0.06890*%
%ADD29R,0.31102X0.16929*%
%ADD37O,0.06693X0.07874*%
%ADD38R,0.06693X0.07874*%
%ADD39C,0.05906*%
%ADD40O,0.07874X0.06693*%
%ADD41R,0.07874X0.06693*%
D21*
X170965Y52444D02*
D03*
X163091D02*
D03*
X170965Y43000D02*
D03*
X163091D02*
D03*
D22*
X128500Y78437D02*
D03*
Y70563D02*
D03*
X48500Y89563D02*
D03*
Y97437D02*
D03*
X61500Y89563D02*
D03*
Y97437D02*
D03*
X62000Y60063D02*
D03*
Y67937D02*
D03*
X74000Y97437D02*
D03*
Y89563D02*
D03*
X116500D02*
D03*
Y97437D02*
D03*
D23*
X48500Y60776D02*
D03*
Y70224D02*
D03*
D24*
X102014Y96740D02*
D03*
Y89260D02*
D03*
X91986D02*
D03*
Y93000D02*
D03*
Y96740D02*
D03*
D25*
X141157Y61602D02*
D03*
X145095D02*
D03*
X149031D02*
D03*
X152969D02*
D03*
X156905D02*
D03*
X160843D02*
D03*
Y99398D02*
D03*
X156905D02*
D03*
X152969D02*
D03*
X149031D02*
D03*
X145095D02*
D03*
X141157D02*
D03*
D29*
X151000Y80500D02*
D03*
D37*
X163000Y18500D02*
D03*
X157375Y140000D02*
D03*
X126000Y18500D02*
D03*
X89000D02*
D03*
X58000Y140000D02*
D03*
X124250D02*
D03*
X91125D02*
D03*
X190500D02*
D03*
D38*
X153000Y18500D02*
D03*
X167375Y140000D02*
D03*
X116000Y18500D02*
D03*
X79000D02*
D03*
X68000Y140000D02*
D03*
X134250D02*
D03*
X101125D02*
D03*
X200500D02*
D03*
D39*
X13600Y145900D02*
D03*
X207000Y13000D02*
D03*
X186500D02*
D03*
X32100Y145900D02*
D03*
D40*
X21000Y88000D02*
D03*
X196000Y85500D02*
D03*
D41*
X21000Y98000D02*
D03*
X196000Y75500D02*
D03*
M02*
