G04*
G04 #@! TF.GenerationSoftware,Altium Limited,Altium Designer,24.0.1 (36)*
G04*
G04 Layer_Physical_Order=1*
G04 Layer_Color=255*
%FSLAX25Y25*%
%MOIN*%
G70*
G04*
G04 #@! TF.SameCoordinates,ECC27F64-EE2B-4F6F-9EE1-9880C6F0E752*
G04*
G04*
G04 #@! TF.FilePolarity,Positive*
G04*
G01*
G75*
%ADD21R,0.04331X0.05512*%
%ADD22R,0.05512X0.04331*%
%ADD23R,0.05512X0.05906*%
%ADD24R,0.03728X0.02000*%
%ADD25R,0.02559X0.06890*%
%ADD29R,0.31102X0.16929*%
%ADD35C,0.02500*%
%ADD36C,0.02000*%
%ADD37O,0.06693X0.07874*%
%ADD38R,0.06693X0.07874*%
%ADD39C,0.05906*%
%ADD40O,0.07874X0.06693*%
%ADD41R,0.07874X0.06693*%
G36*
X216045Y163871D02*
X217359Y163472D01*
X218570Y162825D01*
X219632Y161954D01*
X220503Y160892D01*
X221150Y159681D01*
X221549Y158367D01*
X221681Y157031D01*
X221674Y157000D01*
X221674Y8500D01*
X221681Y8469D01*
X221549Y7133D01*
X221150Y5819D01*
X220503Y4608D01*
X219632Y3546D01*
X218570Y2675D01*
X217359Y2028D01*
X216045Y1629D01*
X214739Y1501D01*
X214243Y1538D01*
X214243Y1538D01*
X213842Y1509D01*
X213842Y1509D01*
X213766Y1504D01*
X9000D01*
X8969Y1498D01*
X7633Y1629D01*
X6319Y2028D01*
X5108Y2675D01*
X4046Y3546D01*
X3175Y4608D01*
X2528Y5819D01*
X2129Y7133D01*
X2042Y8016D01*
X2004Y8500D01*
X2004Y8500D01*
X2004Y9000D01*
X1964Y157461D01*
X1960Y157484D01*
X2083Y158737D01*
X2455Y159964D01*
X3060Y161095D01*
X3873Y162087D01*
X4865Y162900D01*
X5996Y163505D01*
X7224Y163877D01*
X8477Y164001D01*
X8500Y163996D01*
X214678D01*
X214709Y164002D01*
X216045Y163871D01*
D02*
G37*
%LPC*%
G36*
X190500Y144773D02*
X189418Y144630D01*
X188409Y144212D01*
X187543Y143548D01*
X186878Y142682D01*
X186460Y141673D01*
X186318Y140591D01*
Y139409D01*
X186460Y138327D01*
X186878Y137318D01*
X187543Y136452D01*
X188409Y135787D01*
X188410Y135787D01*
Y117330D01*
X188170Y117090D01*
X164500D01*
X163700Y116931D01*
X163022Y116478D01*
X159865Y113321D01*
X159404Y113567D01*
X159465Y113875D01*
Y135787D01*
X159466Y135787D01*
X160332Y136452D01*
X160997Y137318D01*
X161242Y137910D01*
X163228D01*
Y135263D01*
X171521D01*
Y144737D01*
X163228D01*
Y142090D01*
X161242D01*
X160997Y142682D01*
X160332Y143548D01*
X159466Y144212D01*
X158457Y144630D01*
X157375Y144773D01*
X156293Y144630D01*
X155284Y144212D01*
X154418Y143548D01*
X153753Y142682D01*
X153335Y141673D01*
X153193Y140591D01*
Y139409D01*
X153335Y138327D01*
X153753Y137318D01*
X154418Y136452D01*
X155284Y135787D01*
X155285Y135787D01*
Y114741D01*
X151490Y110947D01*
X151301Y110662D01*
X150699D01*
X150510Y110947D01*
X150509Y110947D01*
X140978Y120478D01*
X140300Y120931D01*
X139500Y121090D01*
X139500Y121090D01*
X136330D01*
X136090Y121330D01*
Y135263D01*
X138397D01*
Y144737D01*
X130104D01*
Y142090D01*
X128117D01*
X127872Y142682D01*
X127207Y143548D01*
X126341Y144212D01*
X125332Y144630D01*
X124250Y144773D01*
X123168Y144630D01*
X122159Y144212D01*
X121293Y143548D01*
X120628Y142682D01*
X120210Y141673D01*
X120068Y140591D01*
Y139409D01*
X120210Y138327D01*
X120628Y137318D01*
X121293Y136452D01*
X122159Y135787D01*
X123168Y135370D01*
X124250Y135227D01*
X125332Y135370D01*
X126341Y135787D01*
X127207Y136452D01*
X127872Y137318D01*
X128117Y137910D01*
X130104D01*
Y135263D01*
X131910D01*
Y120465D01*
X131910Y120465D01*
X132069Y119665D01*
X132522Y118986D01*
X133986Y117522D01*
X133986Y117522D01*
X134665Y117069D01*
X135465Y116910D01*
X138634D01*
X139454Y116090D01*
X139247Y115590D01*
X103830D01*
X103590Y115830D01*
Y135263D01*
X105271D01*
Y144737D01*
X96978D01*
Y142090D01*
X94992D01*
X94747Y142682D01*
X94082Y143548D01*
X93216Y144212D01*
X92207Y144630D01*
X91125Y144773D01*
X90043Y144630D01*
X89034Y144212D01*
X88168Y143548D01*
X87503Y142682D01*
X87085Y141673D01*
X86943Y140591D01*
Y139409D01*
X87085Y138327D01*
X87503Y137318D01*
X88168Y136452D01*
X89034Y135787D01*
X90043Y135370D01*
X91125Y135227D01*
X92207Y135370D01*
X93216Y135787D01*
X94082Y136452D01*
X94747Y137318D01*
X94992Y137910D01*
X96978D01*
Y135263D01*
X99410D01*
Y114964D01*
X99410Y114964D01*
X99569Y114165D01*
X100022Y113487D01*
X101418Y112090D01*
X101339Y111678D01*
X101301Y111590D01*
X70366D01*
X70090Y111866D01*
Y135263D01*
X72146D01*
Y144737D01*
X63854D01*
Y142090D01*
X61867D01*
X61622Y142682D01*
X60957Y143548D01*
X60091Y144212D01*
X59082Y144630D01*
X58000Y144773D01*
X56918Y144630D01*
X55909Y144212D01*
X55043Y143548D01*
X54378Y142682D01*
X53960Y141673D01*
X53818Y140591D01*
Y139409D01*
X53960Y138327D01*
X54378Y137318D01*
X55043Y136452D01*
X55909Y135787D01*
X56918Y135370D01*
X58000Y135227D01*
X59082Y135370D01*
X60091Y135787D01*
X60957Y136452D01*
X61622Y137318D01*
X61867Y137910D01*
X63854D01*
Y135263D01*
X65910D01*
Y111000D01*
X65910Y111000D01*
X66069Y110200D01*
X66522Y109522D01*
X68022Y108022D01*
X68700Y107569D01*
X69500Y107410D01*
X138134D01*
X139067Y106477D01*
Y99398D01*
X139078Y99344D01*
Y95153D01*
X162922D01*
Y99344D01*
X162933Y99398D01*
Y104477D01*
X167866Y109410D01*
X190170D01*
X193910Y105670D01*
Y89367D01*
X193318Y89122D01*
X192452Y88457D01*
X191788Y87591D01*
X191370Y86582D01*
X191227Y85500D01*
X191370Y84418D01*
X191788Y83409D01*
X192452Y82543D01*
X193318Y81878D01*
X194327Y81460D01*
X195409Y81318D01*
X196591D01*
X197673Y81460D01*
X198682Y81878D01*
X199548Y82543D01*
X200213Y83409D01*
X200630Y84418D01*
X200773Y85500D01*
X200630Y86582D01*
X200213Y87591D01*
X199548Y88457D01*
X198682Y89122D01*
X198090Y89367D01*
Y106535D01*
X197931Y107335D01*
X197478Y108013D01*
X192514Y112978D01*
X191835Y113431D01*
X191247Y113548D01*
X191057Y114065D01*
X191978Y114987D01*
X191978Y114987D01*
X192431Y115665D01*
X192590Y116464D01*
Y135787D01*
X192591Y135787D01*
X193457Y136452D01*
X194122Y137318D01*
X194367Y137910D01*
X196353D01*
Y135263D01*
X204646D01*
Y144737D01*
X196353D01*
Y142090D01*
X194367D01*
X194122Y142682D01*
X193457Y143548D01*
X192591Y144212D01*
X191582Y144630D01*
X190500Y144773D01*
D02*
G37*
G36*
X25737Y102146D02*
X16263D01*
Y93853D01*
X25737D01*
Y95410D01*
X44944D01*
Y94472D01*
X52056D01*
Y95347D01*
X57944D01*
Y94472D01*
X65056D01*
Y95347D01*
X70444D01*
Y94472D01*
X77556D01*
Y95347D01*
X89322D01*
Y94940D01*
X90626D01*
X90822Y94809D01*
X91622Y94650D01*
X91986D01*
X92786Y94809D01*
X92982Y94940D01*
X94650D01*
Y98540D01*
X92982D01*
X92786Y98671D01*
X92612Y98706D01*
X92403Y98915D01*
X91725Y99368D01*
X90925Y99527D01*
X90925Y99527D01*
X77556D01*
Y100402D01*
X70444D01*
Y99527D01*
X65056D01*
Y100402D01*
X57944D01*
Y99527D01*
X52056D01*
Y100402D01*
X44944D01*
Y99590D01*
X25737D01*
Y102146D01*
D02*
G37*
G36*
X104678Y91060D02*
X99350D01*
Y87460D01*
X104678D01*
Y91060D01*
D02*
G37*
G36*
X77556Y92528D02*
X70444D01*
Y86598D01*
X77556D01*
Y87425D01*
X91986D01*
X92163Y87460D01*
X94650D01*
Y91060D01*
X92163D01*
X91986Y91095D01*
X77556D01*
Y92528D01*
D02*
G37*
G36*
X120056Y100402D02*
X112944D01*
Y99080D01*
X102264D01*
X101464Y98921D01*
X100894Y98540D01*
X99350D01*
Y94940D01*
X101018D01*
X101214Y94809D01*
X102014Y94650D01*
X102814Y94809D01*
X102950Y94900D01*
X107068D01*
Y85024D01*
X106134Y84090D01*
X63464D01*
X62665Y83931D01*
X61987Y83478D01*
X61987Y83478D01*
X60522Y82013D01*
X60069Y81335D01*
X59910Y80536D01*
X59910Y80536D01*
Y70902D01*
X58444D01*
Y64972D01*
X65556D01*
Y70902D01*
X64090D01*
Y79670D01*
X64330Y79910D01*
X107000D01*
X107000Y79910D01*
X107800Y80069D01*
X108478Y80522D01*
X110636Y82681D01*
X111090Y83359D01*
X111249Y84159D01*
X111249Y84159D01*
Y94900D01*
X112944D01*
Y94472D01*
X117100D01*
X120410Y91162D01*
Y75972D01*
X120410Y75972D01*
X120569Y75173D01*
X121022Y74494D01*
X124944Y70572D01*
Y67598D01*
X132056D01*
Y67895D01*
X139532D01*
X141118Y66309D01*
X140927Y65847D01*
X139078D01*
Y61656D01*
X139067Y61602D01*
Y53523D01*
X121634Y36090D01*
X103910D01*
X103909Y36090D01*
X103110Y35931D01*
X102431Y35478D01*
X102431Y35478D01*
X90083Y23130D01*
X90082Y23130D01*
X89000Y23273D01*
X87918Y23130D01*
X86909Y22713D01*
X86043Y22048D01*
X85378Y21182D01*
X85133Y20590D01*
X83147D01*
Y23237D01*
X74853D01*
Y13763D01*
X83147D01*
Y16410D01*
X85133D01*
X85378Y15818D01*
X86043Y14952D01*
X86909Y14288D01*
X87918Y13870D01*
X89000Y13727D01*
X90082Y13870D01*
X91091Y14288D01*
X91957Y14952D01*
X92622Y15818D01*
X93040Y16827D01*
X93182Y17909D01*
Y19091D01*
X93040Y20173D01*
X93039Y20174D01*
X104775Y31910D01*
X122500D01*
X122500Y31910D01*
X123300Y32069D01*
X123978Y32522D01*
X142635Y51179D01*
X143088Y51858D01*
X143248Y52658D01*
Y57358D01*
X146941D01*
Y52614D01*
X124522Y30194D01*
X124069Y29516D01*
X123910Y28716D01*
X123910Y28716D01*
Y22713D01*
X123909Y22713D01*
X123043Y22048D01*
X122378Y21182D01*
X122133Y20590D01*
X120147D01*
Y23237D01*
X111854D01*
Y13763D01*
X120147D01*
Y16410D01*
X122133D01*
X122378Y15818D01*
X123043Y14952D01*
X123909Y14288D01*
X124918Y13870D01*
X126000Y13727D01*
X127082Y13870D01*
X128091Y14288D01*
X128957Y14952D01*
X129622Y15818D01*
X130040Y16827D01*
X130182Y17909D01*
Y19091D01*
X130040Y20173D01*
X129622Y21182D01*
X128957Y22048D01*
X128091Y22713D01*
X128090Y22713D01*
Y27851D01*
X150410Y50170D01*
X150910Y50029D01*
Y39500D01*
Y23237D01*
X148854D01*
Y13763D01*
X157147D01*
Y23237D01*
X155090D01*
Y38134D01*
X157866Y40910D01*
X160126D01*
Y39444D01*
X166057D01*
Y46556D01*
X160126D01*
Y45090D01*
X157000D01*
X157000Y45090D01*
X156200Y44931D01*
X155590Y44524D01*
X155156Y44645D01*
X155090Y44675D01*
Y48134D01*
X156866Y49910D01*
X160126D01*
Y48888D01*
X166057D01*
Y56000D01*
X160126D01*
Y54090D01*
X156000D01*
X155590Y54009D01*
X155090Y54413D01*
Y57358D01*
X158985D01*
Y61430D01*
X159025Y61632D01*
Y64453D01*
X162468Y67895D01*
X174700D01*
X174700Y67895D01*
X175500Y68054D01*
X176178Y68507D01*
X181081Y73410D01*
X191263D01*
Y71354D01*
X200737D01*
Y79646D01*
X191263D01*
Y77590D01*
X180215D01*
X180215Y77590D01*
X179415Y77431D01*
X178737Y76978D01*
X173835Y72076D01*
X161602D01*
X161602Y72076D01*
X160802Y71917D01*
X160124Y71463D01*
X155457Y66796D01*
X155004Y66118D01*
X154950Y65847D01*
X147050D01*
X146996Y66118D01*
X146543Y66796D01*
X141876Y71463D01*
X141198Y71917D01*
X140398Y72076D01*
X140398Y72076D01*
X132056D01*
Y73528D01*
X127900D01*
X124590Y76838D01*
Y92028D01*
X124431Y92827D01*
X123978Y93506D01*
X123978Y93506D01*
X120056Y97428D01*
Y100402D01*
D02*
G37*
G36*
X52056Y64528D02*
X44944D01*
Y57023D01*
X52056D01*
Y58329D01*
X58444D01*
Y57098D01*
X65556D01*
Y63028D01*
X58444D01*
Y62510D01*
X52056D01*
Y64528D01*
D02*
G37*
G36*
X213919Y1515D02*
X213832Y1509D01*
X213686Y1504D01*
X213757Y1504D01*
X213757Y1504D01*
X213766Y1504D01*
X213842Y1509D01*
X213919Y1515D01*
D02*
G37*
%LPD*%
D21*
X170965Y52444D02*
D03*
X163091D02*
D03*
X170965Y43000D02*
D03*
X163091D02*
D03*
D22*
X128500Y78437D02*
D03*
Y70563D02*
D03*
X48500Y89563D02*
D03*
Y97437D02*
D03*
X61500Y89563D02*
D03*
Y97437D02*
D03*
X62000Y60063D02*
D03*
Y67937D02*
D03*
X74000Y97437D02*
D03*
Y89563D02*
D03*
X116500D02*
D03*
Y97437D02*
D03*
D23*
X48500Y60776D02*
D03*
Y70224D02*
D03*
D24*
X102014Y96740D02*
D03*
Y89260D02*
D03*
X91986D02*
D03*
Y93000D02*
D03*
Y96740D02*
D03*
D25*
X141157Y61602D02*
D03*
X145095D02*
D03*
X149031D02*
D03*
X152969D02*
D03*
X156905D02*
D03*
X160843D02*
D03*
Y99398D02*
D03*
X156905D02*
D03*
X152969D02*
D03*
X149031D02*
D03*
X145095D02*
D03*
X141157D02*
D03*
D29*
X151000Y80500D02*
D03*
D35*
X21000Y98000D02*
X21500Y97500D01*
X48437D01*
X116000Y18500D02*
X126000D01*
X79000D02*
X89000D01*
X141157Y52658D02*
Y61602D01*
X122500Y34000D02*
X141157Y52658D01*
X103909Y34000D02*
X122500D01*
X89000Y18500D02*
Y19091D01*
X103909Y34000D01*
X126000Y28716D02*
X149031Y51748D01*
X126000Y18500D02*
Y28716D01*
X149031Y51748D02*
Y61602D01*
X127909Y70563D02*
X128500D01*
X122500Y75972D02*
X127909Y70563D01*
X122500Y75972D02*
Y92028D01*
X117537Y96990D02*
X122500Y92028D01*
X180215Y75500D02*
X196000D01*
X174700Y69985D02*
X180215Y75500D01*
X161602Y69985D02*
X174700D01*
X156935Y65318D02*
X161602Y69985D01*
X156935Y61632D02*
Y65318D01*
X156905Y61602D02*
X156935Y61632D01*
X145065D02*
Y65318D01*
X140398Y69985D02*
X145065Y65318D01*
X129078Y69985D02*
X140398D01*
X128500Y70563D02*
X129078Y69985D01*
X145065Y61632D02*
X145095Y61602D01*
X153000Y18000D02*
Y39500D01*
X153500D02*
X157000Y43000D01*
X153000Y39500D02*
X153500D01*
X157000Y43000D02*
X163091D01*
X153000Y39500D02*
Y49500D01*
X153500D01*
X156000Y52000D01*
X162647D01*
X163091Y52444D01*
X162176Y51500D02*
X163091Y52415D01*
X152998Y58616D02*
Y61571D01*
X153000Y49500D02*
Y58614D01*
X163091Y52415D02*
Y52444D01*
X152998Y58616D02*
X153000Y58614D01*
X167000Y111500D02*
X191035D01*
X160843Y105342D02*
X167000Y111500D01*
X191035D02*
X196000Y106535D01*
Y85500D02*
Y106535D01*
X160843Y99398D02*
Y105342D01*
X190500Y116464D02*
Y140000D01*
X189035Y115000D02*
X190500Y116464D01*
X164500Y115000D02*
X189035D01*
X156905Y107405D02*
X164500Y115000D01*
X156905Y99398D02*
Y107405D01*
X152969Y109468D02*
X157375Y113875D01*
Y140000D01*
X152969Y99398D02*
Y109468D01*
X149031Y99398D02*
Y109468D01*
X139500Y119000D02*
X149031Y109468D01*
X139667Y113500D02*
X145095Y108072D01*
Y99398D02*
Y108072D01*
X141157Y99398D02*
Y107343D01*
X139000Y109500D02*
X141157Y107343D01*
X135465Y119000D02*
X139500D01*
X69500Y109500D02*
X139000D01*
X102964Y113500D02*
X139667D01*
X134000Y120465D02*
Y139750D01*
Y120465D02*
X135465Y119000D01*
X134000Y139750D02*
X134250Y140000D01*
X101125D02*
X101500Y139625D01*
Y114964D02*
Y139625D01*
Y114964D02*
X102964Y113500D01*
X68000Y111000D02*
Y140000D01*
Y111000D02*
X69500Y109500D01*
X190500Y140000D02*
X200500D01*
X157375D02*
X167375D01*
X124250D02*
X134250D01*
X91125D02*
X101125D01*
X58000D02*
X68000D01*
X48437Y97500D02*
X48500Y97437D01*
Y60776D02*
X48856Y60419D01*
X48500Y97437D02*
X61500D01*
X48856Y60419D02*
X61644D01*
X61500Y97437D02*
X74000D01*
X61644Y60419D02*
X62000Y60063D01*
Y67937D02*
Y80536D01*
X63464Y82000D01*
X107000D01*
X74000Y97437D02*
X90925D01*
X91622Y96740D01*
X91986D01*
X102014D02*
X102264Y96990D01*
X109159D01*
X107000Y82000D02*
X109159Y84159D01*
Y96990D02*
X117537D01*
X109159Y84159D02*
Y96990D01*
D36*
X74000Y89563D02*
X74303Y89260D01*
X91986D01*
D37*
X163000Y18500D02*
D03*
X157375Y140000D02*
D03*
X126000Y18500D02*
D03*
X89000D02*
D03*
X58000Y140000D02*
D03*
X124250D02*
D03*
X91125D02*
D03*
X190500D02*
D03*
D38*
X153000Y18500D02*
D03*
X167375Y140000D02*
D03*
X116000Y18500D02*
D03*
X79000D02*
D03*
X68000Y140000D02*
D03*
X134250D02*
D03*
X101125D02*
D03*
X200500D02*
D03*
D39*
X13600Y145900D02*
D03*
X207000Y13000D02*
D03*
X186500D02*
D03*
X32100Y145900D02*
D03*
D40*
X21000Y88000D02*
D03*
X196000Y85500D02*
D03*
D41*
X21000Y98000D02*
D03*
X196000Y75500D02*
D03*
M02*
