G04*
G04 #@! TF.GenerationSoftware,Altium Limited,Altium Designer,24.0.1 (36)*
G04*
G04 Layer_Color=32768*
%FSLAX25Y25*%
%MOIN*%
G70*
G04*
G04 #@! TF.SameCoordinates,ECC27F64-EE2B-4F6F-9EE1-9880C6F0E752*
G04*
G04*
G04 #@! TF.FilePolarity,Positive*
G04*
G01*
G75*
%ADD13C,0.00394*%
%ADD14C,0.00600*%
%ADD43C,0.00197*%
G36*
X101650Y85800D02*
X92350D01*
Y87260D01*
X89000D01*
Y98740D01*
X92350D01*
Y100200D01*
X101650D01*
Y98740D01*
X105000D01*
Y87260D01*
X101650D01*
Y85800D01*
D02*
G37*
D13*
X13600Y143931D02*
Y147869D01*
X11631Y145900D02*
X15568D01*
X205031Y13000D02*
X208968D01*
X207000Y11032D02*
Y14968D01*
X184531Y13000D02*
X188469D01*
X186500Y11032D02*
Y14968D01*
X32100Y143931D02*
Y147869D01*
X30132Y145900D02*
X34069D01*
X167535Y56878D02*
Y104122D01*
X134465D02*
X167535D01*
X134465Y56878D02*
Y104122D01*
Y56878D02*
X167535D01*
X149031Y80500D02*
X152969D01*
X151000Y78531D02*
Y82468D01*
D14*
X92350Y85800D02*
X101650D01*
Y87260D01*
X105000D01*
Y98740D01*
X101650D02*
X105000D01*
X101650D02*
Y100200D01*
X92350D02*
X101650D01*
X92350Y98740D02*
Y100200D01*
X89000Y98740D02*
X92350D01*
X89000Y87260D02*
Y98740D01*
Y87260D02*
X92350D01*
Y85800D02*
Y87260D01*
D43*
X18994Y145900D02*
G03*
X18994Y145900I-5394J0D01*
G01*
X212394Y13000D02*
G03*
X212394Y13000I-5394J0D01*
G01*
X191894D02*
G03*
X191894Y13000I-5394J0D01*
G01*
X37494Y145900D02*
G03*
X37494Y145900I-5394J0D01*
G01*
M02*
