G04*
G04 #@! TF.GenerationSoftware,Altium Limited,Altium Designer,24.0.1 (36)*
G04*
G04 Layer_Color=16711935*
%FSLAX25Y25*%
%MOIN*%
G70*
G04*
G04 #@! TF.SameCoordinates,F3E6F756-A8AB-42CB-8D3C-BD9787F49845*
G04*
G04*
G04 #@! TF.FilePolarity,Positive*
G04*
G01*
G75*
%ADD11C,0.00787*%
G36*
X239956Y432762D02*
X239953D01*
X239938D01*
X239916D01*
X239887Y432765D01*
X239854Y432769D01*
X239818Y432776D01*
X239782Y432784D01*
X239742Y432798D01*
X239738D01*
X239734Y432802D01*
X239713Y432809D01*
X239680Y432824D01*
X239636Y432845D01*
X239585Y432874D01*
X239527Y432911D01*
X239469Y432951D01*
X239407Y433002D01*
X239403D01*
X239399Y433009D01*
X239378Y433027D01*
X239345Y433060D01*
X239298Y433108D01*
X239243Y433162D01*
X239177Y433231D01*
X239105Y433315D01*
X239028Y433406D01*
X239024Y433410D01*
X239014Y433424D01*
X238995Y433446D01*
X238973Y433471D01*
X238944Y433504D01*
X238912Y433544D01*
X238875Y433584D01*
X238835Y433632D01*
X238748Y433723D01*
X238661Y433814D01*
X238617Y433857D01*
X238573Y433897D01*
X238533Y433934D01*
X238493Y433963D01*
X238489D01*
X238486Y433970D01*
X238475Y433978D01*
X238460Y433985D01*
X238420Y434010D01*
X238373Y434039D01*
X238315Y434065D01*
X238253Y434090D01*
X238184Y434105D01*
X238118Y434112D01*
X238115D01*
X238111D01*
X238089Y434108D01*
X238053Y434105D01*
X238013Y434094D01*
X237962Y434079D01*
X237911Y434054D01*
X237860Y434021D01*
X237809Y433978D01*
X237802Y433970D01*
X237787Y433952D01*
X237769Y433926D01*
X237743Y433886D01*
X237721Y433836D01*
X237700Y433777D01*
X237685Y433708D01*
X237681Y433632D01*
Y433610D01*
X237685Y433595D01*
X237689Y433552D01*
X237700Y433501D01*
X237714Y433446D01*
X237740Y433384D01*
X237772Y433326D01*
X237816Y433271D01*
X237823Y433264D01*
X237842Y433250D01*
X237871Y433228D01*
X237914Y433206D01*
X237965Y433180D01*
X238031Y433158D01*
X238104Y433144D01*
X238187Y433137D01*
X238155Y432820D01*
X238151D01*
X238140Y432824D01*
X238122D01*
X238096Y432827D01*
X238067Y432834D01*
X238034Y432842D01*
X237994Y432853D01*
X237954Y432864D01*
X237867Y432893D01*
X237780Y432936D01*
X237736Y432962D01*
X237692Y432995D01*
X237652Y433027D01*
X237616Y433064D01*
X237612Y433068D01*
X237609Y433075D01*
X237598Y433086D01*
X237587Y433104D01*
X237572Y433126D01*
X237558Y433151D01*
X237539Y433180D01*
X237521Y433217D01*
X237503Y433257D01*
X237485Y433300D01*
X237470Y433348D01*
X237456Y433399D01*
X237445Y433453D01*
X237434Y433511D01*
X237430Y433573D01*
X237426Y433639D01*
Y433675D01*
X237430Y433701D01*
X237434Y433730D01*
X237438Y433766D01*
X237445Y433806D01*
X237452Y433846D01*
X237477Y433941D01*
X237514Y434036D01*
X237536Y434083D01*
X237561Y434130D01*
X237594Y434174D01*
X237630Y434214D01*
X237634Y434218D01*
X237638Y434225D01*
X237652Y434232D01*
X237667Y434247D01*
X237685Y434265D01*
X237710Y434283D01*
X237736Y434301D01*
X237769Y434323D01*
X237838Y434360D01*
X237925Y434396D01*
X237969Y434411D01*
X238020Y434418D01*
X238071Y434425D01*
X238125Y434429D01*
X238133D01*
X238151D01*
X238180Y434425D01*
X238220Y434422D01*
X238264Y434414D01*
X238315Y434400D01*
X238369Y434385D01*
X238424Y434363D01*
X238431Y434360D01*
X238449Y434352D01*
X238478Y434338D01*
X238519Y434316D01*
X238562Y434287D01*
X238617Y434250D01*
X238671Y434207D01*
X238733Y434156D01*
X238741Y434149D01*
X238762Y434130D01*
X238781Y434112D01*
X238799Y434094D01*
X238821Y434072D01*
X238850Y434043D01*
X238879Y434014D01*
X238912Y433978D01*
X238948Y433941D01*
X238988Y433897D01*
X239028Y433850D01*
X239075Y433799D01*
X239123Y433741D01*
X239174Y433683D01*
X239177Y433679D01*
X239185Y433672D01*
X239196Y433657D01*
X239210Y433639D01*
X239232Y433617D01*
X239254Y433592D01*
X239301Y433533D01*
X239356Y433471D01*
X239410Y433413D01*
X239458Y433362D01*
X239476Y433341D01*
X239494Y433322D01*
X239498Y433319D01*
X239509Y433308D01*
X239523Y433293D01*
X239545Y433275D01*
X239570Y433257D01*
X239596Y433235D01*
X239658Y433191D01*
Y434433D01*
X239956D01*
Y432762D01*
D02*
G37*
G36*
X239236Y432383D02*
X239265D01*
X239334Y432376D01*
X239414Y432369D01*
X239498Y432354D01*
X239574Y432332D01*
X239647Y432307D01*
X239651D01*
X239654Y432303D01*
X239676Y432292D01*
X239705Y432274D01*
X239745Y432248D01*
X239785Y432212D01*
X239829Y432172D01*
X239873Y432121D01*
X239909Y432063D01*
X239913Y432056D01*
X239924Y432034D01*
X239938Y432001D01*
X239953Y431954D01*
X239971Y431895D01*
X239985Y431830D01*
X239996Y431757D01*
X240000Y431677D01*
Y431644D01*
X239996Y431622D01*
X239993Y431593D01*
X239989Y431564D01*
X239974Y431488D01*
X239953Y431408D01*
X239920Y431324D01*
X239898Y431280D01*
X239873Y431240D01*
X239844Y431204D01*
X239811Y431167D01*
X239807Y431164D01*
X239804Y431160D01*
X239789Y431153D01*
X239774Y431142D01*
X239756Y431127D01*
X239731Y431113D01*
X239702Y431098D01*
X239669Y431080D01*
X239632Y431066D01*
X239589Y431051D01*
X239545Y431036D01*
X239494Y431022D01*
X239440Y431014D01*
X239378Y431004D01*
X239316Y431000D01*
X239247D01*
X239203Y431302D01*
X239207D01*
X239214D01*
X239228D01*
X239250Y431306D01*
X239272Y431309D01*
X239298D01*
X239359Y431320D01*
X239425Y431331D01*
X239490Y431353D01*
X239549Y431375D01*
X239574Y431389D01*
X239596Y431408D01*
X239600Y431411D01*
X239611Y431426D01*
X239629Y431448D01*
X239647Y431477D01*
X239669Y431517D01*
X239683Y431561D01*
X239698Y431615D01*
X239702Y431673D01*
Y431695D01*
X239698Y431717D01*
X239694Y431750D01*
X239687Y431782D01*
X239680Y431819D01*
X239665Y431855D01*
X239647Y431892D01*
X239643Y431895D01*
X239636Y431906D01*
X239621Y431921D01*
X239607Y431943D01*
X239581Y431961D01*
X239556Y431983D01*
X239527Y432001D01*
X239490Y432016D01*
X239487D01*
X239472Y432023D01*
X239447Y432026D01*
X239414Y432034D01*
X239370Y432041D01*
X239316Y432045D01*
X239250Y432052D01*
X239174D01*
X237438D01*
Y432387D01*
X239156D01*
X239159D01*
X239170D01*
X239185D01*
X239207D01*
X239236Y432383D01*
D02*
G37*
G36*
X302797Y430698D02*
X302794D01*
X302786D01*
X302772D01*
X302750Y430694D01*
X302728Y430691D01*
X302702D01*
X302641Y430680D01*
X302575Y430669D01*
X302509Y430647D01*
X302451Y430625D01*
X302426Y430611D01*
X302404Y430592D01*
X302400Y430589D01*
X302389Y430574D01*
X302371Y430552D01*
X302353Y430523D01*
X302331Y430483D01*
X302317Y430440D01*
X302302Y430385D01*
X302298Y430327D01*
Y430305D01*
X302302Y430283D01*
X302306Y430250D01*
X302313Y430217D01*
X302320Y430181D01*
X302335Y430145D01*
X302353Y430108D01*
X302357Y430105D01*
X302364Y430094D01*
X302379Y430079D01*
X302393Y430057D01*
X302419Y430039D01*
X302444Y430017D01*
X302473Y429999D01*
X302509Y429985D01*
X302513D01*
X302528Y429977D01*
X302553Y429974D01*
X302586Y429966D01*
X302630Y429959D01*
X302684Y429955D01*
X302750Y429948D01*
X302826D01*
X304562D01*
Y429613D01*
X302844D01*
X302841D01*
X302830D01*
X302815D01*
X302794D01*
X302764Y429617D01*
X302735D01*
X302666Y429624D01*
X302586Y429631D01*
X302502Y429646D01*
X302426Y429668D01*
X302353Y429693D01*
X302349D01*
X302346Y429697D01*
X302324Y429708D01*
X302295Y429726D01*
X302255Y429751D01*
X302215Y429788D01*
X302171Y429828D01*
X302127Y429879D01*
X302091Y429937D01*
X302087Y429944D01*
X302076Y429966D01*
X302062Y429999D01*
X302047Y430046D01*
X302029Y430105D01*
X302014Y430170D01*
X302004Y430243D01*
X302000Y430323D01*
Y430356D01*
X302004Y430378D01*
X302007Y430407D01*
X302011Y430436D01*
X302025Y430512D01*
X302047Y430592D01*
X302080Y430676D01*
X302102Y430720D01*
X302127Y430760D01*
X302156Y430796D01*
X302189Y430833D01*
X302193Y430836D01*
X302197Y430840D01*
X302211Y430847D01*
X302226Y430858D01*
X302244Y430873D01*
X302269Y430887D01*
X302298Y430902D01*
X302331Y430920D01*
X302368Y430934D01*
X302411Y430949D01*
X302455Y430964D01*
X302506Y430978D01*
X302560Y430985D01*
X302622Y430996D01*
X302684Y431000D01*
X302753D01*
X302797Y430698D01*
D02*
G37*
G36*
X303940Y428954D02*
X303947Y428947D01*
X303951Y428933D01*
X303962Y428914D01*
X303973Y428893D01*
X303987Y428867D01*
X304024Y428805D01*
X304064Y428732D01*
X304115Y428659D01*
X304173Y428583D01*
X304235Y428507D01*
X304239Y428503D01*
X304242Y428499D01*
X304253Y428488D01*
X304264Y428474D01*
X304300Y428441D01*
X304344Y428397D01*
X304395Y428354D01*
X304453Y428306D01*
X304511Y428266D01*
X304573Y428230D01*
Y428030D01*
X302044D01*
Y428339D01*
X304013D01*
X304009Y428343D01*
X303995Y428361D01*
X303973Y428383D01*
X303947Y428419D01*
X303915Y428459D01*
X303878Y428510D01*
X303838Y428569D01*
X303798Y428634D01*
Y428638D01*
X303795Y428641D01*
X303780Y428663D01*
X303762Y428699D01*
X303740Y428743D01*
X303714Y428794D01*
X303689Y428849D01*
X303663Y428903D01*
X303642Y428958D01*
X303940D01*
Y428954D01*
D02*
G37*
D11*
X234409Y419622D02*
X245590D01*
Y442378D01*
X234409D02*
X245590D01*
X234409Y419622D02*
Y442378D01*
X296410D02*
X307591D01*
X296410Y419622D02*
Y442378D01*
Y419622D02*
X307591D01*
Y442378D01*
M02*
