G04*
G04 #@! TF.GenerationSoftware,Altium Limited,Altium Designer,24.0.1 (36)*
G04*
G04 Layer_Color=65535*
%FSLAX25Y25*%
%MOIN*%
G70*
G04*
G04 #@! TF.SameCoordinates,F3E6F756-A8AB-42CB-8D3C-BD9787F49845*
G04*
G04*
G04 #@! TF.FilePolarity,Positive*
G04*
G01*
G75*
%ADD10C,0.00984*%
%ADD11C,0.00787*%
%ADD12C,0.00394*%
%ADD13C,0.00600*%
%ADD14C,0.00591*%
%ADD15C,0.00700*%
D10*
X247579Y426000D02*
G03*
X247579Y426000I-492J0D01*
G01*
X295406Y436000D02*
G03*
X295406Y436000I-492J0D01*
G01*
D11*
X234803Y420016D02*
X245197D01*
Y441984D01*
X234803D02*
X245197D01*
X234803Y420016D02*
Y441984D01*
X296803D02*
X307197D01*
X296803Y420016D02*
Y441984D01*
Y420016D02*
X307197D01*
Y441984D01*
D12*
X253457Y445087D02*
X260543D01*
X253457Y430913D02*
Y445087D01*
Y430913D02*
X260543D01*
Y445087D01*
X253457Y430087D02*
X260543D01*
X253457Y415913D02*
Y430087D01*
Y415913D02*
X260543D01*
Y430087D01*
X284457Y438087D02*
X291543D01*
X284457Y423913D02*
Y438087D01*
Y423913D02*
X291543D01*
Y438087D01*
D13*
X269150Y424100D02*
X276850D01*
X269150Y436900D02*
X276850D01*
D14*
X227214Y449870D02*
X226558Y450526D01*
X225247D01*
X224590Y449870D01*
Y447247D01*
X225247Y446591D01*
X226558D01*
X227214Y447247D01*
X228526Y450526D02*
X231150D01*
X229838D01*
Y446591D01*
X232462D02*
X233774D01*
X233118D01*
Y450526D01*
X232462Y449870D01*
X235742D02*
X236398Y450526D01*
X237710D01*
X238366Y449870D01*
Y447247D01*
X237710Y446591D01*
X236398D01*
X235742Y447247D01*
Y449870D01*
X239678D02*
X240334Y450526D01*
X241645D01*
X242301Y449870D01*
Y447247D01*
X241645Y446591D01*
X240334D01*
X239678Y447247D01*
Y449870D01*
X243613Y448558D02*
X246237D01*
X247549Y446591D02*
Y450526D01*
X249517D01*
X250173Y449870D01*
Y448558D01*
X249517Y447902D01*
X247549D01*
X248861D02*
X250173Y446591D01*
X251485D02*
Y449214D01*
X252797Y450526D01*
X254109Y449214D01*
Y446591D01*
Y448558D01*
X251485D01*
X255420Y450526D02*
Y446591D01*
X257388D01*
X258044Y447247D01*
Y449870D01*
X257388Y450526D01*
X255420D01*
X259356Y448558D02*
X261980D01*
X265916Y449870D02*
X265260Y450526D01*
X263948D01*
X263292Y449870D01*
Y447247D01*
X263948Y446591D01*
X265260D01*
X265916Y447247D01*
X269196Y450526D02*
X267884D01*
X267228Y449870D01*
Y447247D01*
X267884Y446591D01*
X269196D01*
X269851Y447247D01*
Y449870D01*
X269196Y450526D01*
X271164Y446591D02*
Y450526D01*
X272475Y449214D01*
X273787Y450526D01*
Y446591D01*
X275099D02*
Y450526D01*
X277067D01*
X277723Y449870D01*
Y448558D01*
X277067Y447902D01*
X275099D01*
X228474Y423591D02*
X232410Y426214D01*
X228474D02*
X232410Y423591D01*
Y427526D02*
Y428838D01*
Y428182D01*
X228474D01*
X229130Y427526D01*
X228474Y433591D02*
X232410Y436214D01*
X228474D02*
X232410Y433591D01*
Y440150D02*
Y437526D01*
X229786Y440150D01*
X229130D01*
X228474Y439494D01*
Y438182D01*
X229130Y437526D01*
X296590Y447526D02*
Y444903D01*
X297902Y443590D01*
X299214Y444903D01*
Y447526D01*
X303150Y446870D02*
X302494Y447526D01*
X301182D01*
X300526Y446870D01*
Y444246D01*
X301182Y443590D01*
X302494D01*
X303150Y444246D01*
X307086Y446870D02*
X306430Y447526D01*
X305118D01*
X304462Y446870D01*
Y444246D01*
X305118Y443590D01*
X306430D01*
X307086Y444246D01*
X299214Y417870D02*
X298558Y418526D01*
X297247D01*
X296590Y417870D01*
Y415246D01*
X297247Y414591D01*
X298558D01*
X299214Y415246D01*
Y416558D01*
X297902D01*
X300526Y414591D02*
Y418526D01*
X303150Y414591D01*
Y418526D01*
X304462D02*
Y414591D01*
X306430D01*
X307086Y415246D01*
Y417870D01*
X306430Y418526D01*
X304462D01*
D15*
X264500Y440252D02*
X266861Y437890D01*
X264500D02*
X266861Y440252D01*
X264500Y439071D02*
X266861D01*
X265681Y437890D02*
Y440252D01*
M02*
