G04*
G04 #@! TF.GenerationSoftware,Altium Limited,Altium Designer,24.0.1 (36)*
G04*
G04 Layer_Physical_Order=2*
G04 Layer_Color=16711680*
%FSLAX25Y25*%
%MOIN*%
G70*
G04*
G04 #@! TF.SameCoordinates,F3E6F756-A8AB-42CB-8D3C-BD9787F49845*
G04*
G04*
G04 #@! TF.FilePolarity,Positive*
G04*
G01*
G75*
%ADD19C,0.06181*%
%ADD20R,0.06181X0.06181*%
%ADD23C,0.03150*%
G36*
X312566Y452366D02*
X313045Y452045D01*
X313366Y451566D01*
X313474Y451020D01*
X313471Y451000D01*
Y411000D01*
X313474Y410980D01*
X313366Y410434D01*
X313045Y409955D01*
X312566Y409634D01*
X312020Y409525D01*
X312000Y409529D01*
X225000D01*
X224980Y409525D01*
X224434Y409634D01*
X223955Y409955D01*
X223634Y410434D01*
X223526Y410980D01*
X223529Y411000D01*
Y451000D01*
X223526Y451020D01*
X223634Y451566D01*
X223955Y452045D01*
X224434Y452366D01*
X224980Y452474D01*
X225000Y452471D01*
X312000D01*
X312020Y452474D01*
X312566Y452366D01*
D02*
G37*
%LPC*%
G36*
X306090Y440091D02*
X297909D01*
Y431910D01*
X306090D01*
Y440091D01*
D02*
G37*
G36*
X240539D02*
X239461D01*
X238421Y439812D01*
X237488Y439273D01*
X236727Y438512D01*
X236188Y437579D01*
X235910Y436539D01*
Y435462D01*
X236188Y434421D01*
X236727Y433488D01*
X237488Y432727D01*
X238421Y432188D01*
X239461Y431910D01*
X240539D01*
X241579Y432188D01*
X242512Y432727D01*
X243273Y433488D01*
X243812Y434421D01*
X244091Y435462D01*
Y436539D01*
X243812Y437579D01*
X243273Y438512D01*
X242512Y439273D01*
X241579Y439812D01*
X240539Y440091D01*
D02*
G37*
G36*
X303000Y429967D02*
Y427000D01*
X305967D01*
X305812Y427579D01*
X305273Y428512D01*
X304512Y429273D01*
X303579Y429812D01*
X303000Y429967D01*
D02*
G37*
G36*
X301000D02*
X300421Y429812D01*
X299488Y429273D01*
X298727Y428512D01*
X298188Y427579D01*
X298033Y427000D01*
X301000D01*
Y429967D01*
D02*
G37*
G36*
X305967Y425000D02*
X303000D01*
Y422033D01*
X303579Y422188D01*
X304512Y422727D01*
X305273Y423488D01*
X305812Y424421D01*
X305967Y425000D01*
D02*
G37*
G36*
X301000D02*
X298033D01*
X298188Y424421D01*
X298727Y423488D01*
X299488Y422727D01*
X300421Y422188D01*
X301000Y422033D01*
Y425000D01*
D02*
G37*
G36*
X244091Y430091D02*
X235910D01*
Y421910D01*
X244091D01*
Y430091D01*
D02*
G37*
G36*
X284100Y451500D02*
X262100D01*
Y411200D01*
X284100D01*
Y451500D01*
D02*
G37*
%LPD*%
D19*
X240000Y436000D02*
D03*
X302000Y426000D02*
D03*
D20*
X240000D02*
D03*
X302000Y436000D02*
D03*
D23*
X288000Y421000D02*
D03*
X257000Y447000D02*
D03*
Y414000D02*
D03*
M02*
